<?xml version="1.0" encoding="utf-8"?>
<!-- Generator: Adobe Illustrator 23.1.1, SVG Export Plug-In . SVG Version: 6.00 Build 0)  -->
<svg version="1.1" id="Слой_1" xmlns="http://www.w3.org/2000/svg" xmlns:xlink="http://www.w3.org/1999/xlink" x="0px" y="0px"
	 width="90px" height="90px" viewBox="0 0 512 512" style="enable-background:new 0 0 512 512;" xml:space="preserve">
<style type="text/css">
	.st0{fill:#EFB600;}
	.st1{fill:#F9D778;}
	.st2{fill:#70C1E5;}
	.st3{fill:#3DA2DB;}
	.st4{fill:#0B799D;}
	.st5{fill:#07485E;}
</style>
<path class="st0" d="M316,346l-5.82,37.5L316,421c3.33,0,63.25,0,60,0l5.12-39.71L376,346l-30.88-4.41L316,346z"/>
<path class="st1" d="M256,346c0,3.33,0,63.25,0,60c0,8.29,6.71,15,15,15c3.02,0,48.02,0,45,0c0-4.04,0-79.21,0-75l-30-6.18L256,346z
	"/>
<path class="st1" d="M376,346c0,4.04,0,79.21,0,75c3.33,0,63.25,0,60,0l5.82-40.59L436,346l-29.94-4.41L376,346z"/>
<path class="st0" d="M76,346l-6.88,37.5L76,421c3.33,0,63.25,0,60,0l6.88-39.18L136,346l-29.12-6.18L76,346z"/>
<path class="st1" d="M136,421h45c8.29,0,15-6.71,15-15c0-3.33,0-63.25,0-60l-30.18-4.41L136,346V421z"/>
<path class="st2" d="M482,196c0,8.4,6.6,15,15,15s15,6.6,15,15v180c0,8.4-6.6,15-15,15h-61v-75H76v75H15c-8.4,0-15-6.6-15-15V226
	c0-8.4,6.6-15,15-15s15-6.6,15-15c0-8.4-6.6-15-15-15s-15-6.6-15-15v-60c0-8.4,6.6-15,15-15h482c8.4,0,15,6.6,15,15v60
	c0,8.4-6.6,15-15,15S482,187.6,482,196z"/>
<path class="st3" d="M482,196c0,8.4,6.6,15,15,15s15,6.6,15,15v180c0,8.4-6.6,15-15,15h-61v-75H256V91h241c8.4,0,15,6.6,15,15v60
	c0,8.4-6.6,15-15,15S482,187.6,482,196z"/>
<path class="st4" d="M166,301h-60c-8.29,0-15-6.71-15-15V166c0-8.29,6.71-15,15-15h60c8.29,0,15,6.71,15,15v120
	C181,294.29,174.29,301,166,301z"/>
<path class="st4" d="M286,151h-60c-8.4,0-15,6.6-15,15v120c0,8.4,6.6,15,15,15h60c8.4,0,15-6.6,15-15V166
	C301,157.6,294.4,151,286,151z"/>
<g>
	<path class="st5" d="M406,301h-60c-8.29,0-15-6.71-15-15V166c0-8.29,6.71-15,15-15h60c8.29,0,15,6.71,15,15v120
		C421,294.29,414.29,301,406,301z"/>
	<path class="st5" d="M301,166v120c0,8.4-6.6,15-15,15h-30V151h30C294.4,151,301,157.6,301,166z"/>
</g>
</svg>
