<?xml version="1.0" encoding="utf-8"?>
<!-- Generator: Adobe Illustrator 23.1.1, SVG Export Plug-In . SVG Version: 6.00 Build 0)  -->
<svg version="1.1" id="Слой_1" xmlns="http://www.w3.org/2000/svg" xmlns:xlink="http://www.w3.org/1999/xlink" x="0px" y="0px"
	 width="90px" height="90px" viewBox="0 0 512 512" style="enable-background:new 0 0 512 512;" xml:space="preserve">
<style type="text/css">
	.st0{fill:#B4D2D7;}
	.st1{fill:#87A0AF;}
	.st2{fill:#E1EBF0;}
	.st3{fill:#70C1E5;}
	.st4{fill:#3DA2DB;}
	.st5{fill:#26A2C4;}
	.st6{fill:#167393;}
</style>
<path class="st0" d="M331,362v120c0,8.4-6.6,15-15,15H196c-8.4,0-15-6.6-15-15V362c0-8.4,6.6-15,15-15h120
	C324.4,347,331,353.6,331,362z"/>
<path class="st1" d="M331,362v120c0,8.4-6.6,15-15,15h-60V347h60C324.4,347,331,353.6,331,362z"/>
<path class="st2" d="M391,497c0,8.4-6.6,15-15,15H136c-8.4,0-15-6.6-15-15c0-8.4,6.6-15,15-15h240C384.4,482,391,488.6,391,497z"/>
<path class="st0" d="M391,497c0,8.4-6.6,15-15,15H256v-30h120C384.4,482,391,488.6,391,497z"/>
<path class="st2" d="M512,257v120c0,8.4-6.6,15-15,15H15c-8.4,0-15-6.6-15-15V257c3.04-0.17,273-15.04,256-14.1L512,257z"/>
<path class="st0" d="M512,257v120c0,8.4-6.6,15-15,15H256V242.9L512,257z"/>
<path class="st3" d="M497,0H15C6.6,0,0,6.6,0,15v240h512V15C512,6.6,505.4,0,497,0z"/>
<path class="st4" d="M497,0H256v255h256V15C512,6.6,505.4,0,497,0z"/>
<path class="st0" d="M301,317c0,8.4-6.6,15-15,15h-60c-8.4,0-15-6.6-15-15c0-8.4,6.6-15,15-15h60C294.4,302,301,308.6,301,317z"/>
<path class="st1" d="M301,317c0,8.4-6.6,15-15,15h-30v-30h30C294.4,302,301,308.6,301,317z"/>
<path class="st2" d="M361,107c0,8.4-6.6,15-15,15H166c-6,0-11.4-3.6-13.8-9.3c-2.4-5.7-1.2-12,3.3-16.2l30-30c5.7-6,15.3-6,21,0
	c6,5.7,6,15.3,0,21l-4.2,4.5H346C354.4,92,361,98.6,361,107z"/>
<path class="st2" d="M356.5,177.5l-30,30c-5.4,6-15.6,6-21,0c-6-5.7-6-15.3,0-21l4.2-4.5H166c-8.4,0-15-6.6-15-15
	c0-8.4,6.6-15,15-15h180c6,0,11.4,3.6,13.8,9.3C362.2,167,361,173.3,356.5,177.5z"/>
<path class="st0" d="M346,122h-90V92h90c8.4,0,15,6.6,15,15C361,115.4,354.4,122,346,122z"/>
<path class="st0" d="M359.8,161.3c2.4,5.7,1.2,12-3.3,16.2l-30,30c-5.39,6-15.6,6-21,0c-6-5.7-6-15.3,0-21l4.2-4.5H256v-30h90
	C352,152,357.4,155.6,359.8,161.3z"/>
<path class="st2" d="M512,437v60c0,8.4-6.6,15-15,15H376c-8.4,0-15-6.6-15-15v-60c3.02-0.58,79.87-15.34,75-14.4L512,437z"/>
<path class="st0" d="M512,437v60c0,8.4-6.6,15-15,15h-61v-89.4L512,437z"/>
<path class="st5" d="M512,257v180H361V257c0-8.4,6.6-15,15-15h121C505.4,242,512,248.6,512,257z"/>
<path class="st6" d="M512,257v180h-76V242h61C505.4,242,512,248.6,512,257z"/>
</svg>
