<?xml version="1.0" encoding="utf-8"?>
<!-- Generator: Adobe Illustrator 23.1.1, SVG Export Plug-In . SVG Version: 6.00 Build 0)  -->
<svg version="1.1" id="Слой_1" xmlns="http://www.w3.org/2000/svg" xmlns:xlink="http://www.w3.org/1999/xlink" x="0px" y="0px"
	 width="90px" height="90px" viewBox="0 0 512 512" style="enable-background:new 0 0 512 512;" xml:space="preserve">
<style type="text/css">
	.st0{fill:#70C1E5;}
	.st1{fill:#3DA2DB;}
	.st2{fill:#07485E;}
	.st3{fill:#6FE8D5;}
	.st4{fill:#FDBF00;}
	.st5{fill:#EFB600;}
	.st6{fill:#15CCC2;}
	.st7{font-family:'MyriadPro-Regular';}
	.st8{font-size:12px;}
</style>
<path class="st0" d="M271,257v60c0,8.4-6.6,15-15,15s-15-6.6-15-15v-60c0-8.4,6.6-15,15-15S271,248.6,271,257z"/>
<path class="st1" d="M271,257v60c0,8.4-6.6,15-15,15v-90C264.4,242,271,248.6,271,257z"/>
<path class="st1" d="M256,302c-24.9,0-45,20.1-45,45v60c0,8.4,6.6,15,15,15h15v-75c0-8.4,6.6-15,15-15s15,6.6,15,15v75h15
	c8.4,0,15-6.6,15-15v-60C301,322.1,280.9,302,256,302z"/>
<path class="st2" d="M301,347v60c0,8.4-6.6,15-15,15h-15v-75c0-8.4-6.6-15-15-15v-30C280.9,302,301,322.1,301,347z"/>
<path class="st0" d="M196,452H15c-8.29,0-15-6.71-15-15s6.71-15,15-15h181c8.29,0,15,6.71,15,15S204.29,452,196,452z"/>
<path class="st1" d="M497,452H316c-8.29,0-15-6.71-15-15s6.71-15,15-15h181c8.29,0,15,6.71,15,15S505.29,452,497,452z"/>
<path class="st0" d="M436,0H76c-8.4,0-15,6.6-15,15v120c0,8.4,6.6,15,15,15h360c8.4,0,15-6.6,15-15V15C451,6.6,444.4,0,436,0z"/>
<path class="st1" d="M451,15v120c0,8.4-6.6,15-15,15H256V0h180C444.4,0,451,6.6,451,15z"/>
<path class="st1" d="M451,135v120c0,8.4-6.6,15-15,15H76c-8.4,0-15-6.6-15-15V135H451z"/>
<path class="st2" d="M451,135v120c0,8.4-6.6,15-15,15H256V135H451z"/>
<g>
	<path class="st3" d="M151,75c0,8.29-6.71,15-15,15s-15-6.71-15-15s6.71-15,15-15S151,66.71,151,75z"/>
	<path class="st3" d="M211,75c0,8.29-6.71,15-15,15s-15-6.71-15-15s6.71-15,15-15S211,66.71,211,75z"/>
	<path class="st3" d="M151,195c0,8.29-6.71,15-15,15s-15-6.71-15-15s6.71-15,15-15S151,186.71,151,195z"/>
	<path class="st3" d="M211,195c0,8.29-6.71,15-15,15s-15-6.71-15-15s6.71-15,15-15S211,186.71,211,195z"/>
</g>
<path class="st4" d="M316,392H196c-8.4,0-15,6.6-15,15v90c0,8.4,6.6,15,15,15h120c8.4,0,15-6.6,15-15v-90
	C331,398.6,324.4,392,316,392z"/>
<path class="st5" d="M331,407v90c0,8.4-6.6,15-15,15h-60V392h60C324.4,392,331,398.6,331,407z"/>
<path class="st3" d="M271,75c0,8.4-6.6,15-15,15s-15-6.6-15-15s6.6-15,15-15S271,66.6,271,75z"/>
<path class="st3" d="M271,195c0,8.4-6.6,15-15,15s-15-6.6-15-15s6.6-15,15-15S271,186.6,271,195z"/>
<path class="st6" d="M271,195c0,8.4-6.6,15-15,15v-30C264.4,180,271,186.6,271,195z"/>
<path class="st6" d="M256,90V60c8.4,0,15,6.6,15,15S264.4,90,256,90z"/>
<text transform="matrix(1 0 0 1 233.0044 258.522)" class="st7 st8">F9D778</text>
</svg>
