<svg 
 xmlns="http://www.w3.org/2000/svg"
 xmlns:xlink="http://www.w3.org/1999/xlink"
 width="20px" height="15px">
<path fill-rule="evenodd"  opacity="0.302" fill="rgb(255, 255, 255)"
 d="M17.554,15.000 L2.446,15.000 C1.097,15.000 -0.000,13.919 -0.000,12.590 L-0.000,2.410 C-0.000,1.081 1.097,-0.000 2.446,-0.000 L17.558,-0.000 C18.907,-0.000 20.004,1.085 20.000,2.414 L20.000,12.590 C20.000,13.919 18.903,15.000 17.554,15.000 ZM18.882,12.590 L18.882,2.414 C18.882,1.693 18.286,1.105 17.554,1.105 L2.446,1.105 C1.713,1.105 1.117,1.693 1.117,2.414 L1.117,12.590 C1.117,13.312 1.713,13.898 2.446,13.898 L17.558,13.898 C18.291,13.898 18.887,13.312 18.887,12.590 L18.882,12.590 ZM17.546,12.748 C17.434,12.863 17.289,12.920 17.140,12.920 C17.004,12.920 16.863,12.871 16.755,12.770 L11.781,8.112 L10.387,9.343 C10.283,9.438 10.147,9.485 10.014,9.485 C9.882,9.485 9.750,9.441 9.642,9.348 L8.285,8.153 L3.282,12.765 C3.174,12.863 3.037,12.912 2.901,12.912 C2.752,12.912 2.603,12.850 2.491,12.736 C2.280,12.512 2.293,12.166 2.516,11.957 L7.445,7.410 L2.495,3.050 C2.263,2.847 2.243,2.499 2.450,2.271 C2.657,2.044 3.008,2.023 3.240,2.227 L8.595,6.949 C8.628,6.974 8.657,6.998 8.686,7.027 C8.686,7.031 8.690,7.035 8.694,7.039 L10.010,8.198 L16.755,2.230 C16.987,2.027 17.339,2.047 17.546,2.271 C17.753,2.499 17.732,2.847 17.504,3.050 L12.613,7.373 L17.525,11.969 C17.749,12.178 17.757,12.528 17.546,12.748 Z"/>
</svg>
