<?xml version="1.0" encoding="utf-8"?>
<!-- Generator: Adobe Illustrator 23.1.1, SVG Export Plug-In . SVG Version: 6.00 Build 0)  -->
<svg version="1.1" id="Слой_1" xmlns="http://www.w3.org/2000/svg" xmlns:xlink="http://www.w3.org/1999/xlink" x="0px" y="0px"
	 width="18px" height="13px" viewBox="0 0 10 6" style="enable-background:new 0 0 10 6;" xml:space="preserve">
<style type="text/css">
	.st0{fill:#FFFFFF;}
	.st1{fill:#B22234;}
	.st2{fill:#3C3B6E;}
</style>
<rect x="0.5" y="0.58" class="st0" width="13" height="6.84"/>
<g>
	<rect id="stripe" x="0.5" y="0.58" class="st1" width="13" height="0.53"/>
</g>
<g>
	<rect x="0.5" y="1.63" class="st1" width="13" height="0.53"/>
</g>
<g>
	<rect x="0.5" y="2.68" class="st1" width="13" height="0.53"/>
</g>
<g>
	<rect x="0.5" y="3.74" class="st1" width="13" height="0.53"/>
</g>
<g>
	<rect x="0.5" y="4.79" class="st1" width="13" height="0.53"/>
</g>
<g>
	<rect x="0.5" y="5.84" class="st1" width="13" height="0.53"/>
</g>
<g>
	<rect x="0.5" y="6.89" class="st1" width="13" height="0.53"/>
</g>
<rect x="0.5" y="0.58" class="st2" width="5.2" height="3.68"/>
<g transform="translate(247,175) scale(650)">
	<g id="u">
		<g>
			<g id="x4">
				<g>
					<g id="s6">
						<g>
							<g id="s5">
								<g>
									<g id="star">
										<g transform="rotate(-144)">
											<polygon id="pt" class="st0" points="1,0.98 0.82,1.11 0.89,0.9 											"/>
										</g>
										<g transform="rotate(-72)">
											<polygon class="st0" points="0.92,1.01 0.74,0.88 0.97,0.88 											"/>
										</g>
										<g>
											<polygon class="st0" points="0.88,0.94 0.94,0.73 1.01,0.94 											"/>
										</g>
										<g transform="rotate(72)">
											<polygon class="st0" points="0.92,0.88 1.15,0.88 0.97,1.01 											"/>
										</g>
										<g transform="rotate(144)">
											<polygon class="st0" points="1,0.9 1.07,1.11 0.89,0.98 											"/>
										</g>
									</g>
								</g>
								<g>
									<g>
										<g transform="rotate(-144)">
											<polygon class="st0" points="1.86,0.98 1.68,1.11 1.75,0.9 											"/>
										</g>
										<g transform="rotate(-72)">
											<polygon class="st0" points="1.79,1.01 1.61,0.88 1.83,0.88 											"/>
										</g>
										<g>
											<polygon class="st0" points="1.74,0.94 1.81,0.73 1.88,0.94 											"/>
										</g>
										<g transform="rotate(72)">
											<polygon class="st0" points="1.79,0.88 2.01,0.88 1.83,1.01 											"/>
										</g>
										<g transform="rotate(144)">
											<polygon class="st0" points="1.86,0.9 1.93,1.11 1.75,0.98 											"/>
										</g>
									</g>
								</g>
								<g>
									<g>
										<g transform="rotate(-144)">
											<polygon class="st0" points="2.72,0.98 2.55,1.11 2.61,0.9 											"/>
										</g>
										<g transform="rotate(-72)">
											<polygon class="st0" points="2.65,1.01 2.47,0.88 2.69,0.88 											"/>
										</g>
										<g>
											<polygon class="st0" points="2.6,0.94 2.67,0.73 2.74,0.94 											"/>
										</g>
										<g transform="rotate(72)">
											<polygon class="st0" points="2.65,0.88 2.87,0.88 2.69,1.01 											"/>
										</g>
										<g transform="rotate(144)">
											<polygon class="st0" points="2.72,0.9 2.79,1.11 2.61,0.98 											"/>
										</g>
									</g>
								</g>
								<g>
									<g>
										<g transform="rotate(-144)">
											<polygon class="st0" points="3.59,0.98 3.41,1.11 3.48,0.9 											"/>
										</g>
										<g transform="rotate(-72)">
											<polygon class="st0" points="3.51,1.01 3.33,0.88 3.55,0.88 											"/>
										</g>
										<g>
											<polygon class="st0" points="3.46,0.94 3.53,0.73 3.6,0.94 											"/>
										</g>
										<g transform="rotate(72)">
											<polygon class="st0" points="3.51,0.88 3.73,0.88 3.55,1.01 											"/>
										</g>
										<g transform="rotate(144)">
											<polygon class="st0" points="3.59,0.9 3.65,1.11 3.48,0.98 											"/>
										</g>
									</g>
								</g>
								<g>
									<g>
										<g transform="rotate(-144)">
											<polygon class="st0" points="4.45,0.98 4.27,1.11 4.34,0.9 											"/>
										</g>
										<g transform="rotate(-72)">
											<polygon class="st0" points="4.37,1.01 4.19,0.88 4.41,0.88 											"/>
										</g>
										<g>
											<polygon class="st0" points="4.32,0.94 4.39,0.73 4.46,0.94 											"/>
										</g>
										<g transform="rotate(72)">
											<polygon class="st0" points="4.37,0.88 4.59,0.88 4.41,1.01 											"/>
										</g>
										<g transform="rotate(144)">
											<polygon class="st0" points="4.45,0.9 4.52,1.11 4.34,0.98 											"/>
										</g>
									</g>
								</g>
							</g>
						</g>
						<g>
							<g>
								<g transform="rotate(-144)">
									<polygon class="st0" points="5.31,0.98 5.13,1.11 5.2,0.9 									"/>
								</g>
								<g transform="rotate(-72)">
									<polygon class="st0" points="5.23,1.01 5.05,0.88 5.28,0.88 									"/>
								</g>
								<g>
									<polygon class="st0" points="5.19,0.94 5.26,0.73 5.32,0.94 									"/>
								</g>
								<g transform="rotate(72)">
									<polygon class="st0" points="5.23,0.88 5.46,0.88 5.28,1.01 									"/>
								</g>
								<g transform="rotate(144)">
									<polygon class="st0" points="5.31,0.9 5.38,1.11 5.2,0.98 									"/>
								</g>
							</g>
						</g>
					</g>
				</g>
				<g>
					<g>
						<g>
							<g>
								<g transform="rotate(-144)">
									<polygon class="st0" points="1.43,1.35 1.25,1.48 1.32,1.27 									"/>
								</g>
								<g transform="rotate(-72)">
									<polygon class="st0" points="1.35,1.38 1.18,1.25 1.4,1.25 									"/>
								</g>
								<g>
									<polygon class="st0" points="1.31,1.31 1.38,1.1 1.44,1.31 									"/>
								</g>
								<g transform="rotate(72)">
									<polygon class="st0" points="1.35,1.25 1.58,1.25 1.4,1.38 									"/>
								</g>
								<g transform="rotate(144)">
									<polygon class="st0" points="1.43,1.27 1.5,1.48 1.32,1.35 									"/>
								</g>
							</g>
						</g>
						<g>
							<g>
								<g transform="rotate(-144)">
									<polygon class="st0" points="2.29,1.35 2.11,1.48 2.18,1.27 									"/>
								</g>
								<g transform="rotate(-72)">
									<polygon class="st0" points="2.22,1.38 2.04,1.25 2.26,1.25 									"/>
								</g>
								<g>
									<polygon class="st0" points="2.17,1.31 2.24,1.1 2.31,1.31 									"/>
								</g>
								<g transform="rotate(72)">
									<polygon class="st0" points="2.22,1.25 2.44,1.25 2.26,1.38 									"/>
								</g>
								<g transform="rotate(144)">
									<polygon class="st0" points="2.29,1.27 2.36,1.48 2.18,1.35 									"/>
								</g>
							</g>
						</g>
						<g>
							<g>
								<g transform="rotate(-144)">
									<polygon class="st0" points="3.16,1.35 2.98,1.48 3.04,1.27 									"/>
								</g>
								<g transform="rotate(-72)">
									<polygon class="st0" points="3.08,1.38 2.9,1.25 3.12,1.25 									"/>
								</g>
								<g>
									<polygon class="st0" points="3.03,1.31 3.1,1.1 3.17,1.31 									"/>
								</g>
								<g transform="rotate(72)">
									<polygon class="st0" points="3.08,1.25 3.3,1.25 3.12,1.38 									"/>
								</g>
								<g transform="rotate(144)">
									<polygon class="st0" points="3.16,1.27 3.22,1.48 3.04,1.35 									"/>
								</g>
							</g>
						</g>
						<g>
							<g>
								<g transform="rotate(-144)">
									<polygon class="st0" points="4.02,1.35 3.84,1.48 3.91,1.27 									"/>
								</g>
								<g transform="rotate(-72)">
									<polygon class="st0" points="3.94,1.38 3.76,1.25 3.98,1.25 									"/>
								</g>
								<g>
									<polygon class="st0" points="3.89,1.31 3.96,1.1 4.03,1.31 									"/>
								</g>
								<g transform="rotate(72)">
									<polygon class="st0" points="3.94,1.25 4.16,1.25 3.98,1.38 									"/>
								</g>
								<g transform="rotate(144)">
									<polygon class="st0" points="4.02,1.27 4.09,1.48 3.91,1.35 									"/>
								</g>
							</g>
						</g>
						<g>
							<g>
								<g transform="rotate(-144)">
									<polygon class="st0" points="4.88,1.35 4.7,1.48 4.77,1.27 									"/>
								</g>
								<g transform="rotate(-72)">
									<polygon class="st0" points="4.8,1.38 4.62,1.25 4.85,1.25 									"/>
								</g>
								<g>
									<polygon class="st0" points="4.76,1.31 4.82,1.1 4.89,1.31 									"/>
								</g>
								<g transform="rotate(72)">
									<polygon class="st0" points="4.8,1.25 5.02,1.25 4.85,1.38 									"/>
								</g>
								<g transform="rotate(144)">
									<polygon class="st0" points="4.88,1.27 4.95,1.48 4.77,1.35 									"/>
								</g>
							</g>
						</g>
					</g>
				</g>
				<g>
					<g>
						<g>
							<g>
								<g>
									<g>
										<g transform="rotate(-144)">
											<polygon class="st0" points="1,1.72 0.82,1.85 0.89,1.64 											"/>
										</g>
										<g transform="rotate(-72)">
											<polygon class="st0" points="0.92,1.75 0.74,1.62 0.97,1.62 											"/>
										</g>
										<g>
											<polygon class="st0" points="0.88,1.68 0.94,1.47 1.01,1.68 											"/>
										</g>
										<g transform="rotate(72)">
											<polygon class="st0" points="0.92,1.62 1.15,1.62 0.97,1.75 											"/>
										</g>
										<g transform="rotate(144)">
											<polygon class="st0" points="1,1.64 1.07,1.85 0.89,1.72 											"/>
										</g>
									</g>
								</g>
								<g>
									<g>
										<g transform="rotate(-144)">
											<polygon class="st0" points="1.86,1.72 1.68,1.85 1.75,1.64 											"/>
										</g>
										<g transform="rotate(-72)">
											<polygon class="st0" points="1.79,1.75 1.61,1.62 1.83,1.62 											"/>
										</g>
										<g>
											<polygon class="st0" points="1.74,1.68 1.81,1.47 1.88,1.68 											"/>
										</g>
										<g transform="rotate(72)">
											<polygon class="st0" points="1.79,1.62 2.01,1.62 1.83,1.75 											"/>
										</g>
										<g transform="rotate(144)">
											<polygon class="st0" points="1.86,1.64 1.93,1.85 1.75,1.72 											"/>
										</g>
									</g>
								</g>
								<g>
									<g>
										<g transform="rotate(-144)">
											<polygon class="st0" points="2.72,1.72 2.55,1.85 2.61,1.64 											"/>
										</g>
										<g transform="rotate(-72)">
											<polygon class="st0" points="2.65,1.75 2.47,1.62 2.69,1.62 											"/>
										</g>
										<g>
											<polygon class="st0" points="2.6,1.68 2.67,1.47 2.74,1.68 											"/>
										</g>
										<g transform="rotate(72)">
											<polygon class="st0" points="2.65,1.62 2.87,1.62 2.69,1.75 											"/>
										</g>
										<g transform="rotate(144)">
											<polygon class="st0" points="2.72,1.64 2.79,1.85 2.61,1.72 											"/>
										</g>
									</g>
								</g>
								<g>
									<g>
										<g transform="rotate(-144)">
											<polygon class="st0" points="3.59,1.72 3.41,1.85 3.48,1.64 											"/>
										</g>
										<g transform="rotate(-72)">
											<polygon class="st0" points="3.51,1.75 3.33,1.62 3.55,1.62 											"/>
										</g>
										<g>
											<polygon class="st0" points="3.46,1.68 3.53,1.47 3.6,1.68 											"/>
										</g>
										<g transform="rotate(72)">
											<polygon class="st0" points="3.51,1.62 3.73,1.62 3.55,1.75 											"/>
										</g>
										<g transform="rotate(144)">
											<polygon class="st0" points="3.59,1.64 3.65,1.85 3.48,1.72 											"/>
										</g>
									</g>
								</g>
								<g>
									<g>
										<g transform="rotate(-144)">
											<polygon class="st0" points="4.45,1.72 4.27,1.85 4.34,1.64 											"/>
										</g>
										<g transform="rotate(-72)">
											<polygon class="st0" points="4.37,1.75 4.19,1.62 4.41,1.62 											"/>
										</g>
										<g>
											<polygon class="st0" points="4.32,1.68 4.39,1.47 4.46,1.68 											"/>
										</g>
										<g transform="rotate(72)">
											<polygon class="st0" points="4.37,1.62 4.59,1.62 4.41,1.75 											"/>
										</g>
										<g transform="rotate(144)">
											<polygon class="st0" points="4.45,1.64 4.52,1.85 4.34,1.72 											"/>
										</g>
									</g>
								</g>
							</g>
						</g>
						<g>
							<g>
								<g transform="rotate(-144)">
									<polygon class="st0" points="5.31,1.72 5.13,1.85 5.2,1.64 									"/>
								</g>
								<g transform="rotate(-72)">
									<polygon class="st0" points="5.23,1.75 5.05,1.62 5.28,1.62 									"/>
								</g>
								<g>
									<polygon class="st0" points="5.19,1.68 5.26,1.47 5.32,1.68 									"/>
								</g>
								<g transform="rotate(72)">
									<polygon class="st0" points="5.23,1.62 5.46,1.62 5.28,1.75 									"/>
								</g>
								<g transform="rotate(144)">
									<polygon class="st0" points="5.31,1.64 5.38,1.85 5.2,1.72 									"/>
								</g>
							</g>
						</g>
					</g>
				</g>
				<g>
					<g>
						<g>
							<g>
								<g transform="rotate(-144)">
									<polygon class="st0" points="1.43,2.09 1.25,2.22 1.32,2.01 									"/>
								</g>
								<g transform="rotate(-72)">
									<polygon class="st0" points="1.35,2.12 1.18,1.99 1.4,1.99 									"/>
								</g>
								<g>
									<polygon class="st0" points="1.31,2.05 1.38,1.84 1.44,2.05 									"/>
								</g>
								<g transform="rotate(72)">
									<polygon class="st0" points="1.35,1.99 1.58,1.99 1.4,2.12 									"/>
								</g>
								<g transform="rotate(144)">
									<polygon class="st0" points="1.43,2.01 1.5,2.22 1.32,2.09 									"/>
								</g>
							</g>
						</g>
						<g>
							<g>
								<g transform="rotate(-144)">
									<polygon class="st0" points="2.29,2.09 2.11,2.22 2.18,2.01 									"/>
								</g>
								<g transform="rotate(-72)">
									<polygon class="st0" points="2.22,2.12 2.04,1.99 2.26,1.99 									"/>
								</g>
								<g>
									<polygon class="st0" points="2.17,2.05 2.24,1.84 2.31,2.05 									"/>
								</g>
								<g transform="rotate(72)">
									<polygon class="st0" points="2.22,1.99 2.44,1.99 2.26,2.12 									"/>
								</g>
								<g transform="rotate(144)">
									<polygon class="st0" points="2.29,2.01 2.36,2.22 2.18,2.09 									"/>
								</g>
							</g>
						</g>
						<g>
							<g>
								<g transform="rotate(-144)">
									<polygon class="st0" points="3.16,2.09 2.98,2.22 3.04,2.01 									"/>
								</g>
								<g transform="rotate(-72)">
									<polygon class="st0" points="3.08,2.12 2.9,1.99 3.12,1.99 									"/>
								</g>
								<g>
									<polygon class="st0" points="3.03,2.05 3.1,1.84 3.17,2.05 									"/>
								</g>
								<g transform="rotate(72)">
									<polygon class="st0" points="3.08,1.99 3.3,1.99 3.12,2.12 									"/>
								</g>
								<g transform="rotate(144)">
									<polygon class="st0" points="3.16,2.01 3.22,2.22 3.04,2.09 									"/>
								</g>
							</g>
						</g>
						<g>
							<g>
								<g transform="rotate(-144)">
									<polygon class="st0" points="4.02,2.09 3.84,2.22 3.91,2.01 									"/>
								</g>
								<g transform="rotate(-72)">
									<polygon class="st0" points="3.94,2.12 3.76,1.99 3.98,1.99 									"/>
								</g>
								<g>
									<polygon class="st0" points="3.89,2.05 3.96,1.84 4.03,2.05 									"/>
								</g>
								<g transform="rotate(72)">
									<polygon class="st0" points="3.94,1.99 4.16,1.99 3.98,2.12 									"/>
								</g>
								<g transform="rotate(144)">
									<polygon class="st0" points="4.02,2.01 4.09,2.22 3.91,2.09 									"/>
								</g>
							</g>
						</g>
						<g>
							<g>
								<g transform="rotate(-144)">
									<polygon class="st0" points="4.88,2.09 4.7,2.22 4.77,2.01 									"/>
								</g>
								<g transform="rotate(-72)">
									<polygon class="st0" points="4.8,2.12 4.62,1.99 4.85,1.99 									"/>
								</g>
								<g>
									<polygon class="st0" points="4.76,2.05 4.82,1.84 4.89,2.05 									"/>
								</g>
								<g transform="rotate(72)">
									<polygon class="st0" points="4.8,1.99 5.02,1.99 4.85,2.12 									"/>
								</g>
								<g transform="rotate(144)">
									<polygon class="st0" points="4.88,2.01 4.95,2.22 4.77,2.09 									"/>
								</g>
							</g>
						</g>
					</g>
				</g>
			</g>
		</g>
		<g>
			<g>
				<g>
					<g>
						<g>
							<g>
								<g>
									<g>
										<g transform="rotate(-144)">
											<polygon class="st0" points="1,2.46 0.82,2.59 0.89,2.38 											"/>
										</g>
										<g transform="rotate(-72)">
											<polygon class="st0" points="0.92,2.49 0.74,2.36 0.97,2.36 											"/>
										</g>
										<g>
											<polygon class="st0" points="0.88,2.42 0.94,2.21 1.01,2.42 											"/>
										</g>
										<g transform="rotate(72)">
											<polygon class="st0" points="0.92,2.36 1.15,2.36 0.97,2.49 											"/>
										</g>
										<g transform="rotate(144)">
											<polygon class="st0" points="1,2.38 1.07,2.59 0.89,2.46 											"/>
										</g>
									</g>
								</g>
								<g>
									<g>
										<g transform="rotate(-144)">
											<polygon class="st0" points="1.86,2.46 1.68,2.59 1.75,2.38 											"/>
										</g>
										<g transform="rotate(-72)">
											<polygon class="st0" points="1.79,2.49 1.61,2.36 1.83,2.36 											"/>
										</g>
										<g>
											<polygon class="st0" points="1.74,2.42 1.81,2.21 1.88,2.42 											"/>
										</g>
										<g transform="rotate(72)">
											<polygon class="st0" points="1.79,2.36 2.01,2.36 1.83,2.49 											"/>
										</g>
										<g transform="rotate(144)">
											<polygon class="st0" points="1.86,2.38 1.93,2.59 1.75,2.46 											"/>
										</g>
									</g>
								</g>
								<g>
									<g>
										<g transform="rotate(-144)">
											<polygon class="st0" points="2.72,2.46 2.55,2.59 2.61,2.38 											"/>
										</g>
										<g transform="rotate(-72)">
											<polygon class="st0" points="2.65,2.49 2.47,2.36 2.69,2.36 											"/>
										</g>
										<g>
											<polygon class="st0" points="2.6,2.42 2.67,2.21 2.74,2.42 											"/>
										</g>
										<g transform="rotate(72)">
											<polygon class="st0" points="2.65,2.36 2.87,2.36 2.69,2.49 											"/>
										</g>
										<g transform="rotate(144)">
											<polygon class="st0" points="2.72,2.38 2.79,2.59 2.61,2.46 											"/>
										</g>
									</g>
								</g>
								<g>
									<g>
										<g transform="rotate(-144)">
											<polygon class="st0" points="3.59,2.46 3.41,2.59 3.48,2.38 											"/>
										</g>
										<g transform="rotate(-72)">
											<polygon class="st0" points="3.51,2.49 3.33,2.36 3.55,2.36 											"/>
										</g>
										<g>
											<polygon class="st0" points="3.46,2.42 3.53,2.21 3.6,2.42 											"/>
										</g>
										<g transform="rotate(72)">
											<polygon class="st0" points="3.51,2.36 3.73,2.36 3.55,2.49 											"/>
										</g>
										<g transform="rotate(144)">
											<polygon class="st0" points="3.59,2.38 3.65,2.59 3.48,2.46 											"/>
										</g>
									</g>
								</g>
								<g>
									<g>
										<g transform="rotate(-144)">
											<polygon class="st0" points="4.45,2.46 4.27,2.59 4.34,2.38 											"/>
										</g>
										<g transform="rotate(-72)">
											<polygon class="st0" points="4.37,2.49 4.19,2.36 4.41,2.36 											"/>
										</g>
										<g>
											<polygon class="st0" points="4.32,2.42 4.39,2.21 4.46,2.42 											"/>
										</g>
										<g transform="rotate(72)">
											<polygon class="st0" points="4.37,2.36 4.59,2.36 4.41,2.49 											"/>
										</g>
										<g transform="rotate(144)">
											<polygon class="st0" points="4.45,2.38 4.52,2.59 4.34,2.46 											"/>
										</g>
									</g>
								</g>
							</g>
						</g>
						<g>
							<g>
								<g transform="rotate(-144)">
									<polygon class="st0" points="5.31,2.46 5.13,2.59 5.2,2.38 									"/>
								</g>
								<g transform="rotate(-72)">
									<polygon class="st0" points="5.23,2.49 5.05,2.36 5.28,2.36 									"/>
								</g>
								<g>
									<polygon class="st0" points="5.19,2.42 5.26,2.21 5.32,2.42 									"/>
								</g>
								<g transform="rotate(72)">
									<polygon class="st0" points="5.23,2.36 5.46,2.36 5.28,2.49 									"/>
								</g>
								<g transform="rotate(144)">
									<polygon class="st0" points="5.31,2.38 5.38,2.59 5.2,2.46 									"/>
								</g>
							</g>
						</g>
					</g>
				</g>
				<g>
					<g>
						<g>
							<g>
								<g transform="rotate(-144)">
									<polygon class="st0" points="1.43,2.83 1.25,2.96 1.32,2.75 									"/>
								</g>
								<g transform="rotate(-72)">
									<polygon class="st0" points="1.35,2.86 1.18,2.73 1.4,2.73 									"/>
								</g>
								<g>
									<polygon class="st0" points="1.31,2.79 1.38,2.58 1.44,2.79 									"/>
								</g>
								<g transform="rotate(72)">
									<polygon class="st0" points="1.35,2.73 1.58,2.73 1.4,2.86 									"/>
								</g>
								<g transform="rotate(144)">
									<polygon class="st0" points="1.43,2.75 1.5,2.96 1.32,2.83 									"/>
								</g>
							</g>
						</g>
						<g>
							<g>
								<g transform="rotate(-144)">
									<polygon class="st0" points="2.29,2.83 2.11,2.96 2.18,2.75 									"/>
								</g>
								<g transform="rotate(-72)">
									<polygon class="st0" points="2.22,2.86 2.04,2.73 2.26,2.73 									"/>
								</g>
								<g>
									<polygon class="st0" points="2.17,2.79 2.24,2.58 2.31,2.79 									"/>
								</g>
								<g transform="rotate(72)">
									<polygon class="st0" points="2.22,2.73 2.44,2.73 2.26,2.86 									"/>
								</g>
								<g transform="rotate(144)">
									<polygon class="st0" points="2.29,2.75 2.36,2.96 2.18,2.83 									"/>
								</g>
							</g>
						</g>
						<g>
							<g>
								<g transform="rotate(-144)">
									<polygon class="st0" points="3.16,2.83 2.98,2.96 3.04,2.75 									"/>
								</g>
								<g transform="rotate(-72)">
									<polygon class="st0" points="3.08,2.86 2.9,2.73 3.12,2.73 									"/>
								</g>
								<g>
									<polygon class="st0" points="3.03,2.79 3.1,2.58 3.17,2.79 									"/>
								</g>
								<g transform="rotate(72)">
									<polygon class="st0" points="3.08,2.73 3.3,2.73 3.12,2.86 									"/>
								</g>
								<g transform="rotate(144)">
									<polygon class="st0" points="3.16,2.75 3.22,2.96 3.04,2.83 									"/>
								</g>
							</g>
						</g>
						<g>
							<g>
								<g transform="rotate(-144)">
									<polygon class="st0" points="4.02,2.83 3.84,2.96 3.91,2.75 									"/>
								</g>
								<g transform="rotate(-72)">
									<polygon class="st0" points="3.94,2.86 3.76,2.73 3.98,2.73 									"/>
								</g>
								<g>
									<polygon class="st0" points="3.89,2.79 3.96,2.58 4.03,2.79 									"/>
								</g>
								<g transform="rotate(72)">
									<polygon class="st0" points="3.94,2.73 4.16,2.73 3.98,2.86 									"/>
								</g>
								<g transform="rotate(144)">
									<polygon class="st0" points="4.02,2.75 4.09,2.96 3.91,2.83 									"/>
								</g>
							</g>
						</g>
						<g>
							<g>
								<g transform="rotate(-144)">
									<polygon class="st0" points="4.88,2.83 4.7,2.96 4.77,2.75 									"/>
								</g>
								<g transform="rotate(-72)">
									<polygon class="st0" points="4.8,2.86 4.62,2.73 4.85,2.73 									"/>
								</g>
								<g>
									<polygon class="st0" points="4.76,2.79 4.82,2.58 4.89,2.79 									"/>
								</g>
								<g transform="rotate(72)">
									<polygon class="st0" points="4.8,2.73 5.02,2.73 4.85,2.86 									"/>
								</g>
								<g transform="rotate(144)">
									<polygon class="st0" points="4.88,2.75 4.95,2.96 4.77,2.83 									"/>
								</g>
							</g>
						</g>
					</g>
				</g>
				<g>
					<g>
						<g>
							<g>
								<g>
									<g>
										<g transform="rotate(-144)">
											<polygon class="st0" points="1,3.2 0.82,3.33 0.89,3.12 											"/>
										</g>
										<g transform="rotate(-72)">
											<polygon class="st0" points="0.92,3.23 0.74,3.09 0.97,3.09 											"/>
										</g>
										<g>
											<polygon class="st0" points="0.88,3.16 0.94,2.95 1.01,3.16 											"/>
										</g>
										<g transform="rotate(72)">
											<polygon class="st0" points="0.92,3.09 1.15,3.09 0.97,3.23 											"/>
										</g>
										<g transform="rotate(144)">
											<polygon class="st0" points="1,3.12 1.07,3.33 0.89,3.2 											"/>
										</g>
									</g>
								</g>
								<g>
									<g>
										<g transform="rotate(-144)">
											<polygon class="st0" points="1.86,3.2 1.68,3.33 1.75,3.12 											"/>
										</g>
										<g transform="rotate(-72)">
											<polygon class="st0" points="1.79,3.23 1.61,3.09 1.83,3.09 											"/>
										</g>
										<g>
											<polygon class="st0" points="1.74,3.16 1.81,2.95 1.88,3.16 											"/>
										</g>
										<g transform="rotate(72)">
											<polygon class="st0" points="1.79,3.09 2.01,3.09 1.83,3.23 											"/>
										</g>
										<g transform="rotate(144)">
											<polygon class="st0" points="1.86,3.12 1.93,3.33 1.75,3.2 											"/>
										</g>
									</g>
								</g>
								<g>
									<g>
										<g transform="rotate(-144)">
											<polygon class="st0" points="2.72,3.2 2.55,3.33 2.61,3.12 											"/>
										</g>
										<g transform="rotate(-72)">
											<polygon class="st0" points="2.65,3.23 2.47,3.09 2.69,3.09 											"/>
										</g>
										<g>
											<polygon class="st0" points="2.6,3.16 2.67,2.95 2.74,3.16 											"/>
										</g>
										<g transform="rotate(72)">
											<polygon class="st0" points="2.65,3.09 2.87,3.09 2.69,3.23 											"/>
										</g>
										<g transform="rotate(144)">
											<polygon class="st0" points="2.72,3.12 2.79,3.33 2.61,3.2 											"/>
										</g>
									</g>
								</g>
								<g>
									<g>
										<g transform="rotate(-144)">
											<polygon class="st0" points="3.59,3.2 3.41,3.33 3.48,3.12 											"/>
										</g>
										<g transform="rotate(-72)">
											<polygon class="st0" points="3.51,3.23 3.33,3.09 3.55,3.09 											"/>
										</g>
										<g>
											<polygon class="st0" points="3.46,3.16 3.53,2.95 3.6,3.16 											"/>
										</g>
										<g transform="rotate(72)">
											<polygon class="st0" points="3.51,3.09 3.73,3.09 3.55,3.23 											"/>
										</g>
										<g transform="rotate(144)">
											<polygon class="st0" points="3.59,3.12 3.65,3.33 3.48,3.2 											"/>
										</g>
									</g>
								</g>
								<g>
									<g>
										<g transform="rotate(-144)">
											<polygon class="st0" points="4.45,3.2 4.27,3.33 4.34,3.12 											"/>
										</g>
										<g transform="rotate(-72)">
											<polygon class="st0" points="4.37,3.23 4.19,3.09 4.41,3.09 											"/>
										</g>
										<g>
											<polygon class="st0" points="4.32,3.16 4.39,2.95 4.46,3.16 											"/>
										</g>
										<g transform="rotate(72)">
											<polygon class="st0" points="4.37,3.09 4.59,3.09 4.41,3.23 											"/>
										</g>
										<g transform="rotate(144)">
											<polygon class="st0" points="4.45,3.12 4.52,3.33 4.34,3.2 											"/>
										</g>
									</g>
								</g>
							</g>
						</g>
						<g>
							<g>
								<g transform="rotate(-144)">
									<polygon class="st0" points="5.31,3.2 5.13,3.33 5.2,3.12 									"/>
								</g>
								<g transform="rotate(-72)">
									<polygon class="st0" points="5.23,3.23 5.05,3.09 5.28,3.09 									"/>
								</g>
								<g>
									<polygon class="st0" points="5.19,3.16 5.26,2.95 5.32,3.16 									"/>
								</g>
								<g transform="rotate(72)">
									<polygon class="st0" points="5.23,3.09 5.46,3.09 5.28,3.23 									"/>
								</g>
								<g transform="rotate(144)">
									<polygon class="st0" points="5.31,3.12 5.38,3.33 5.2,3.2 									"/>
								</g>
							</g>
						</g>
					</g>
				</g>
				<g>
					<g>
						<g>
							<g>
								<g transform="rotate(-144)">
									<polygon class="st0" points="1.43,3.57 1.25,3.7 1.32,3.49 									"/>
								</g>
								<g transform="rotate(-72)">
									<polygon class="st0" points="1.35,3.59 1.18,3.46 1.4,3.46 									"/>
								</g>
								<g>
									<polygon class="st0" points="1.31,3.53 1.38,3.32 1.44,3.53 									"/>
								</g>
								<g transform="rotate(72)">
									<polygon class="st0" points="1.35,3.46 1.58,3.46 1.4,3.59 									"/>
								</g>
								<g transform="rotate(144)">
									<polygon class="st0" points="1.43,3.49 1.5,3.7 1.32,3.57 									"/>
								</g>
							</g>
						</g>
						<g>
							<g>
								<g transform="rotate(-144)">
									<polygon class="st0" points="2.29,3.57 2.11,3.7 2.18,3.49 									"/>
								</g>
								<g transform="rotate(-72)">
									<polygon class="st0" points="2.22,3.59 2.04,3.46 2.26,3.46 									"/>
								</g>
								<g>
									<polygon class="st0" points="2.17,3.53 2.24,3.32 2.31,3.53 									"/>
								</g>
								<g transform="rotate(72)">
									<polygon class="st0" points="2.22,3.46 2.44,3.46 2.26,3.59 									"/>
								</g>
								<g transform="rotate(144)">
									<polygon class="st0" points="2.29,3.49 2.36,3.7 2.18,3.57 									"/>
								</g>
							</g>
						</g>
						<g>
							<g>
								<g transform="rotate(-144)">
									<polygon class="st0" points="3.16,3.57 2.98,3.7 3.04,3.49 									"/>
								</g>
								<g transform="rotate(-72)">
									<polygon class="st0" points="3.08,3.59 2.9,3.46 3.12,3.46 									"/>
								</g>
								<g>
									<polygon class="st0" points="3.03,3.53 3.1,3.32 3.17,3.53 									"/>
								</g>
								<g transform="rotate(72)">
									<polygon class="st0" points="3.08,3.46 3.3,3.46 3.12,3.59 									"/>
								</g>
								<g transform="rotate(144)">
									<polygon class="st0" points="3.16,3.49 3.22,3.7 3.04,3.57 									"/>
								</g>
							</g>
						</g>
						<g>
							<g>
								<g transform="rotate(-144)">
									<polygon class="st0" points="4.02,3.57 3.84,3.7 3.91,3.49 									"/>
								</g>
								<g transform="rotate(-72)">
									<polygon class="st0" points="3.94,3.59 3.76,3.46 3.98,3.46 									"/>
								</g>
								<g>
									<polygon class="st0" points="3.89,3.53 3.96,3.32 4.03,3.53 									"/>
								</g>
								<g transform="rotate(72)">
									<polygon class="st0" points="3.94,3.46 4.16,3.46 3.98,3.59 									"/>
								</g>
								<g transform="rotate(144)">
									<polygon class="st0" points="4.02,3.49 4.09,3.7 3.91,3.57 									"/>
								</g>
							</g>
						</g>
						<g>
							<g>
								<g transform="rotate(-144)">
									<polygon class="st0" points="4.88,3.57 4.7,3.7 4.77,3.49 									"/>
								</g>
								<g transform="rotate(-72)">
									<polygon class="st0" points="4.8,3.59 4.62,3.46 4.85,3.46 									"/>
								</g>
								<g>
									<polygon class="st0" points="4.76,3.53 4.82,3.32 4.89,3.53 									"/>
								</g>
								<g transform="rotate(72)">
									<polygon class="st0" points="4.8,3.46 5.02,3.46 4.85,3.59 									"/>
								</g>
								<g transform="rotate(144)">
									<polygon class="st0" points="4.88,3.49 4.95,3.7 4.77,3.57 									"/>
								</g>
							</g>
						</g>
					</g>
				</g>
			</g>
		</g>
		<g>
			<g>
				<g>
					<g>
						<g>
							<g>
								<g transform="rotate(-144)">
									<polygon class="st0" points="1,3.94 0.82,4.07 0.89,3.86 									"/>
								</g>
								<g transform="rotate(-72)">
									<polygon class="st0" points="0.92,3.96 0.74,3.83 0.97,3.83 									"/>
								</g>
								<g>
									<polygon class="st0" points="0.88,3.9 0.94,3.69 1.01,3.9 									"/>
								</g>
								<g transform="rotate(72)">
									<polygon class="st0" points="0.92,3.83 1.15,3.83 0.97,3.96 									"/>
								</g>
								<g transform="rotate(144)">
									<polygon class="st0" points="1,3.86 1.07,4.07 0.89,3.94 									"/>
								</g>
							</g>
						</g>
						<g>
							<g>
								<g transform="rotate(-144)">
									<polygon class="st0" points="1.86,3.94 1.68,4.07 1.75,3.86 									"/>
								</g>
								<g transform="rotate(-72)">
									<polygon class="st0" points="1.79,3.96 1.61,3.83 1.83,3.83 									"/>
								</g>
								<g>
									<polygon class="st0" points="1.74,3.9 1.81,3.69 1.88,3.9 									"/>
								</g>
								<g transform="rotate(72)">
									<polygon class="st0" points="1.79,3.83 2.01,3.83 1.83,3.96 									"/>
								</g>
								<g transform="rotate(144)">
									<polygon class="st0" points="1.86,3.86 1.93,4.07 1.75,3.94 									"/>
								</g>
							</g>
						</g>
						<g>
							<g>
								<g transform="rotate(-144)">
									<polygon class="st0" points="2.72,3.94 2.55,4.07 2.61,3.86 									"/>
								</g>
								<g transform="rotate(-72)">
									<polygon class="st0" points="2.65,3.96 2.47,3.83 2.69,3.83 									"/>
								</g>
								<g>
									<polygon class="st0" points="2.6,3.9 2.67,3.69 2.74,3.9 									"/>
								</g>
								<g transform="rotate(72)">
									<polygon class="st0" points="2.65,3.83 2.87,3.83 2.69,3.96 									"/>
								</g>
								<g transform="rotate(144)">
									<polygon class="st0" points="2.72,3.86 2.79,4.07 2.61,3.94 									"/>
								</g>
							</g>
						</g>
						<g>
							<g>
								<g transform="rotate(-144)">
									<polygon class="st0" points="3.59,3.94 3.41,4.07 3.48,3.86 									"/>
								</g>
								<g transform="rotate(-72)">
									<polygon class="st0" points="3.51,3.96 3.33,3.83 3.55,3.83 									"/>
								</g>
								<g>
									<polygon class="st0" points="3.46,3.9 3.53,3.69 3.6,3.9 									"/>
								</g>
								<g transform="rotate(72)">
									<polygon class="st0" points="3.51,3.83 3.73,3.83 3.55,3.96 									"/>
								</g>
								<g transform="rotate(144)">
									<polygon class="st0" points="3.59,3.86 3.65,4.07 3.48,3.94 									"/>
								</g>
							</g>
						</g>
						<g>
							<g>
								<g transform="rotate(-144)">
									<polygon class="st0" points="4.45,3.94 4.27,4.07 4.34,3.86 									"/>
								</g>
								<g transform="rotate(-72)">
									<polygon class="st0" points="4.37,3.96 4.19,3.83 4.41,3.83 									"/>
								</g>
								<g>
									<polygon class="st0" points="4.32,3.9 4.39,3.69 4.46,3.9 									"/>
								</g>
								<g transform="rotate(72)">
									<polygon class="st0" points="4.37,3.83 4.59,3.83 4.41,3.96 									"/>
								</g>
								<g transform="rotate(144)">
									<polygon class="st0" points="4.45,3.86 4.52,4.07 4.34,3.94 									"/>
								</g>
							</g>
						</g>
					</g>
				</g>
				<g>
					<g>
						<g transform="rotate(-144)">
							<polygon class="st0" points="5.31,3.94 5.13,4.07 5.2,3.86 							"/>
						</g>
						<g transform="rotate(-72)">
							<polygon class="st0" points="5.23,3.96 5.05,3.83 5.28,3.83 							"/>
						</g>
						<g>
							<polygon class="st0" points="5.19,3.9 5.26,3.69 5.32,3.9 							"/>
						</g>
						<g transform="rotate(72)">
							<polygon class="st0" points="5.23,3.83 5.46,3.83 5.28,3.96 							"/>
						</g>
						<g transform="rotate(144)">
							<polygon class="st0" points="5.31,3.86 5.38,4.07 5.2,3.94 							"/>
						</g>
					</g>
				</g>
			</g>
		</g>
	</g>
</g>
</svg>
