<svg 
 xmlns="http://www.w3.org/2000/svg"
 xmlns:xlink="http://www.w3.org/1999/xlink"
 width="15px" height="15px">
<path fill-rule="evenodd"  opacity="0.302" fill="rgb(255, 255, 255)"
 d="M14.550,7.262 C14.302,7.262 14.100,7.061 14.100,6.812 C14.100,5.233 13.485,3.748 12.368,2.632 C11.252,1.515 9.767,0.900 8.187,0.900 C7.939,0.900 7.737,0.698 7.737,0.450 C7.737,0.201 7.939,-0.000 8.187,-0.000 C10.007,-0.000 11.718,0.709 13.005,1.996 C14.291,3.282 15.000,4.993 15.000,6.813 C15.000,7.061 14.798,7.262 14.550,7.262 ZM8.188,4.564 L8.188,4.564 C8.797,4.564 9.347,4.791 9.777,5.222 C10.208,5.654 10.436,6.203 10.436,6.812 C10.436,7.061 10.234,7.262 9.986,7.262 C9.737,7.262 9.536,7.061 9.536,6.812 C9.536,6.446 9.400,6.117 9.141,5.858 C8.879,5.597 8.558,5.464 8.188,5.464 C8.188,5.464 8.188,5.464 8.188,5.464 C7.939,5.464 7.738,5.262 7.738,5.014 C7.738,4.766 7.939,4.564 8.188,4.564 ZM8.188,2.282 C9.398,2.282 10.535,2.754 11.391,3.608 C12.247,4.465 12.718,5.602 12.718,6.812 C12.718,7.061 12.516,7.262 12.268,7.262 C12.020,7.262 11.818,7.061 11.818,6.812 C11.818,5.843 11.441,4.931 10.755,4.245 C10.069,3.559 9.157,3.181 8.188,3.181 C7.939,3.181 7.738,2.980 7.738,2.732 C7.738,2.483 7.939,2.282 8.188,2.282 ZM5.439,5.545 C5.264,5.721 5.034,5.809 4.803,5.809 C4.719,5.809 4.635,5.797 4.553,5.774 L4.265,6.062 C4.060,6.267 4.375,7.542 5.916,9.084 C7.458,10.625 8.733,10.940 8.938,10.735 C8.938,10.735 8.938,10.735 8.938,10.735 L9.227,10.447 C9.139,10.142 9.215,9.799 9.454,9.560 L10.219,8.796 C10.570,8.445 11.140,8.445 11.491,8.796 L14.430,11.735 C14.781,12.086 14.781,12.657 14.430,13.007 L13.666,13.772 C13.496,13.942 13.270,14.036 13.030,14.036 C12.944,14.036 12.860,14.023 12.780,14.000 L12.619,14.161 C12.062,14.717 11.285,15.000 10.353,15.000 C9.785,15.000 9.159,14.895 8.490,14.683 C6.824,14.155 5.059,13.017 3.521,11.478 C1.982,9.941 0.845,8.176 0.317,6.511 C-0.222,4.809 -0.070,3.386 0.743,2.483 C0.756,2.466 1.000,2.220 1.000,2.220 C0.913,1.915 0.988,1.573 1.228,1.334 L1.992,0.569 C2.162,0.400 2.388,0.306 2.628,0.306 C2.869,0.306 3.095,0.400 3.265,0.569 L6.204,3.509 C6.555,3.860 6.555,4.430 6.204,4.781 L5.439,5.545 ZM13.030,13.136 C13.030,13.136 13.794,12.372 13.794,12.372 L10.855,9.433 L10.090,10.196 L13.030,13.136 ZM1.476,3.017 L1.476,3.017 C0.828,3.665 0.721,4.808 1.175,6.238 C1.660,7.769 2.719,9.404 4.157,10.842 C5.595,12.281 7.231,13.340 8.761,13.825 C10.192,14.278 11.336,14.171 11.983,13.524 C11.983,13.524 11.983,13.524 11.983,13.524 L12.064,13.443 L9.783,11.162 L9.574,11.371 C9.574,11.371 9.574,11.371 9.574,11.371 C9.356,11.589 9.069,11.687 8.738,11.687 C7.755,11.687 6.385,10.826 5.280,9.720 C3.803,8.243 2.761,6.294 3.628,5.426 C3.628,5.426 3.628,5.426 3.629,5.426 L3.838,5.217 L1.557,2.935 L1.476,3.017 ZM2.628,1.206 L1.864,1.970 L3.334,3.440 L4.792,4.898 L4.803,4.909 C4.803,4.909 4.804,4.909 4.804,4.909 L5.568,4.145 L2.628,1.206 Z"/>
</svg>
