<?xml version="1.0" encoding="utf-8"?>
<!-- Generator: Adobe Illustrator 23.1.1, SVG Export Plug-In . SVG Version: 6.00 Build 0)  -->
<svg version="1.1" id="Layer_35" xmlns="http://www.w3.org/2000/svg" xmlns:xlink="http://www.w3.org/1999/xlink" x="0px" y="0px"
	 width="50px" height="50px" viewBox="0 0 512 512" style="enable-background:new 0 0 512 512;" xml:space="preserve">
<style type="text/css">
	.st0{fill:#C6C6C6;}
	.st1{fill:#5FD9DB;}
	.st2{fill:#F4B30F;}
	.st3{fill:#F9D778;}
</style>
<path class="st0" d="M360,480v16H88v-16c0-17.68,14.32-32,32-32h16h176h16C345.68,448,360,462.32,360,480z"/>
<path class="st0" d="M288,400l24,48H136l24-48H288z"/>
<path class="st0" d="M232,112H48c-17.68,0-32,14.32-32,32v224c0,17.68,14.32,32,32,32h112h128h112c17.68,0,32-14.32,32-32V112H232z"
	/>
<path class="st1" d="M56,144c-4.4,0-8,3.6-8,8v208c0,4.4,3.6,8,8,8h336c4.4,0,8-3.6,8-8V144H56z"/>
<path class="st2" d="M272,192c-8.8,0-16,7.2-16,16s7.2,16,16,16s16-7.2,16-16S280.8,192,272,192z M264,176h43.76
	c7.6,8.48,12.24,19.68,12.24,32c0,26.48-21.52,48-48,48s-48-21.52-48-48c0-15.52,7.36-29.36,18.8-38.08
	C248.96,173.76,256.24,176,264,176z"/>
<path class="st3" d="M368,184v48l-21.68,5.44c-0.32,0.8-0.56,1.6-0.96,2.4l11.52,19.04l-34,34l-19.04-11.52
	c-0.8,0.4-1.6,0.64-2.4,0.96L296,304h-48l-5.44-21.68c-0.8-0.32-1.6-0.56-2.4-0.96l-19.04,11.52l-34-34l11.52-19.04
	c-0.4-0.8-0.64-1.6-0.96-2.4L176,232v-48l21.68-5.44c0.32-0.8,0.56-1.6,0.96-2.4l-11.52-19.04L200.24,144h24.56
	c2.24,10.88,8.88,20.16,18,25.92C231.36,178.64,224,192.48,224,208c0,26.48,21.52,48,48,48s48-21.52,48-48
	c0-12.32-4.64-23.52-12.24-32H368V184z"/>
<path class="st0" d="M455.36,96H456c22.08,0,40,17.92,40,40s-17.92,40-40,40h-24h-32h-32h-60.24H264c-7.76,0-15.04-2.24-21.2-6.08
	c-9.12-5.76-15.76-15.04-18-25.92c-0.56-2.56-0.8-5.28-0.8-8c0-9.04,2.96-17.36,8-24c7.28-9.68,18.96-16,32-16c0.64,0,1.36,0,2,0.08
	c-1.28-5.12-2-10.56-2-16.08c0-35.36,28.64-64,64-64c28.4,0,52.4,18.48,60.8,44c5.84-2.56,12.4-4,19.2-4
	C431.84,56,451.52,73.28,455.36,96z"/>
<path d="M461.75,88.38C454.92,64.64,433.3,48,408,48c-4.97,0-9.85,0.65-14.6,1.94C381.78,24.55,356.42,8,328,8
	c-39.7,0-72,32.3-72,72c0,2.9,0.2,5.78,0.54,8.64c-11.14,1.75-21,7.33-28.22,15.36H48c-22.06,0-40,17.94-40,40v224
	c0,22.06,17.94,40,40,40h99.06l-16,32H120c-22.06,0-40,17.94-40,40v24h288v-24c0-22.06-17.94-40-40-40h-11.06l-16-32H400
	c22.06,0,40-17.94,40-40V184h16c26.47,0,48-21.53,48-48C504,111.48,485.51,91.23,461.75,88.38z M303.79,184
	c5.22,6.91,8.21,15.26,8.21,24c0,22.06-17.94,40-40,40s-40-17.94-40-40c0-10.86,4.3-20.98,11.91-28.46
	c6.12,2.84,12.91,4.46,20.09,4.46h8H303.79z M272,264c30.88,0,56-25.13,56-56c0-8.38-1.9-16.56-5.42-24H360v41.75l-15.59,3.9
	l-4.27,1.64l-3.73,9.11l10.37,17.27l-25.1,25.11l-17.26-10.37l-9.76,3.97l-4.9,19.62h-35.5l-3.9-15.59l-1.62-4.28l-9.14-3.71
	l-17.26,10.37l-25.1-25.11l10.37-17.27l-4-9.76L184,225.75v-35.5l19.57-4.89l4.02-9.76l-10.37-17.27l6.32-6.33h15.26
	c2.5,7.02,6.55,13.31,11.8,18.4c-9.33,10.22-14.6,23.44-14.6,37.6C216,238.87,241.12,264,272,264L272,264z M187.33,172.93
	L168,177.75v60.5l19.33,4.82l-10.25,17.09l42.78,42.77l17.07-10.25l4.82,19.32h60.5l4.82-19.33l17.07,10.25l42.78-42.77
	l-10.25-17.09l19.33-4.82V184h16v176H56V152h124.92l-3.85,3.84L187.33,172.93z M352,480v8H96v-8c0-13.23,10.77-24,24-24h208
	C341.23,456,352,466.77,352,480z M299.06,440H148.94l16-32h118.11L299.06,440z M424,368c0,13.23-10.77,24-24,24H48
	c-13.23,0-24-10.77-24-24V144c0-13.23,10.77-24,24-24h170.8c-1.78,5.02-2.8,10.38-2.8,16H56c-8.82,0-16,7.18-16,16v208
	c0,8.82,7.18,16,16,16h336c8.82,0,16-7.18,16-16V184h16V368z M456,168H264c-17.65,0-32-14.35-32-32s14.35-32,32-32s32,14.35,32,32
	h16c0-23.46-16.94-43.02-39.22-47.16C272.31,85.93,272,82.98,272,80c0-30.87,25.12-56,56-56c24.24,0,45.61,15.49,53.18,38.52
	l2.74,8.37l8.06-3.53C397.08,65.14,402.47,64,408,64c16.77,0,31.23,10.27,37.13,25.29C423.89,94.23,408,113.27,408,136h16
	c0-17.65,14.35-32,32-32s32,14.35,32,32S473.65,168,456,168L456,168z"/>
<path d="M248,208c0,13.23,10.77,24,24,24s24-10.77,24-24s-10.77-24-24-24S248,194.77,248,208z M272,200c4.41,0,8,3.58,8,8
	s-3.59,8-8,8s-8-3.58-8-8S267.59,200,272,200z"/>
<path d="M72,168h16v16H72V168z"/>
<path d="M104,168h16v16h-16V168z"/>
<path d="M136,168h16v16h-16V168z"/>
<path d="M72,200h80v16H72V200z"/>
<path d="M72,232h80v16H72V232z"/>
<path d="M72,264h80v16H72V264z"/>
<path d="M72,296h80v16H72V296z"/>
<path d="M72,328h144v16H72V328z"/>
<path d="M232,328h16v16h-16V328z"/>
<path d="M264,328h16v16h-16V328z"/>
</svg>
