<?xml version="1.0" encoding="utf-8"?>
<!-- Generator: Adobe Illustrator 23.1.1, SVG Export Plug-In . SVG Version: 6.00 Build 0)  -->
<svg version="1.1" id="Layer_35" xmlns="http://www.w3.org/2000/svg" xmlns:xlink="http://www.w3.org/1999/xlink" x="0px" y="0px"
	 width="50px" height="50px" viewBox="0 0 512 512" style="enable-background:new 0 0 512 512;" xml:space="preserve">
<style type="text/css">
	.st0{fill:#5FD9DB;}
	.st1{fill:#AAB2BD;}
	.st2{fill:#939FAD;}
	.st3{fill:#C6C6C6;}
	.st4{fill:#FFC729;}
	.st5{fill:#F4B30F;}
	.st6{fill:#F9D778;}
</style>
<circle class="st0" cx="136" cy="400" r="16"/>
<circle class="st0" cx="160" cy="464" r="16"/>
<path class="st1" d="M231.2,265.12l8.8-8.8V496c-17.68,0-32-14.32-32-32V258c2.08-1.04,4.08-2.24,6.08-3.44L231.2,265.12z"/>
<path class="st2" d="M496,464c0,17.68-14.32,32-32,32V208v-56c0-4.4-3.6-8-8-8H288v-16l-19.6-4.64c-0.96-3.84-2.08-7.68-3.36-11.36
	H464c17.68,0,32,14.32,32,32V464z"/>
<path class="st3" d="M456,144H288v32l-19.6,4.64c-2.32,9.6-5.84,18.8-10.4,27.36c-1.04,2.08-2.24,4.08-3.44,6.08l10.56,17.12
	L240,256.32V496h224V208v-56C464,147.6,460.4,144,456,144z"/>
<path class="st0" d="M400,448h-96c-8.8,0-16-7.2-16-16v-80c0-8.8,7.2-16,16-16h8h80h8c8.8,0,16,7.2,16,16v80
	C416,440.8,408.8,448,400,448z"/>
<circle class="st4" cx="352" cy="384" r="16"/>
<path class="st5" d="M152,64c48.64,0,88,39.36,88,88s-39.36,88-88,88s-88-39.36-88-88S103.36,64,152,64z M192,152
	c0-22.08-17.92-40-40-40s-40,17.92-40,40s17.92,40,40,40S192,174.08,192,152z"/>
<path class="st6" d="M240,256.32l-8.8,8.8l-17.12-10.56c-2,1.2-4,2.4-6.08,3.44c-8.56,4.56-17.76,8.08-27.36,10.4L176,288h-48
	l-4.64-19.6c-11.92-2.88-23.2-7.6-33.44-13.84L72.8,265.12L38.88,231.2l10.56-17.12c-6.24-10.24-10.96-21.52-13.84-33.44L16,176v-48
	l19.6-4.64c2.88-11.92,7.6-23.2,13.84-33.44L38.88,72.8L72.8,38.88l17.12,10.56c10.24-6.24,21.52-10.96,33.44-13.84L128,16h48
	l4.64,19.6c11.92,2.88,23.2,7.6,33.44,13.84l17.12-10.56l33.92,33.92l-10.56,17.12c4.24,6.96,7.76,14.32,10.48,22.08
	c1.28,3.68,2.4,7.52,3.36,11.36L288,128v16v32l-19.6,4.64c-2.32,9.6-5.84,18.8-10.4,27.36c-1.04,2.08-2.24,4.08-3.44,6.08
	l10.56,17.12L240,256.32z M240,152c0-48.64-39.36-88-88-88s-88,39.36-88,88s39.36,88,88,88S240,200.64,240,152z"/>
<path d="M464,104H270.49c-1.94-4.77-4.1-9.44-6.61-13.95l11.41-18.42l-42.9-42.9l-18.42,11.4c-8.45-4.69-17.38-8.39-26.66-11.05
	L182.34,8h-60.67l-4.96,21.07c-9.28,2.66-18.21,6.36-26.66,11.05L71.62,28.73l-42.9,42.9l11.41,18.42
	c-4.69,8.46-8.39,17.38-11.05,26.66L8,121.66v60.67l21.08,4.96c2.66,9.27,6.36,18.2,11.05,26.66l-11.41,18.42l42.9,42.9l18.42-11.4
	c8.45,4.69,17.38,8.39,26.66,11.05l4.96,21.08h60.67l4.96-21.07c4.32-1.24,8.54-2.75,12.7-4.44V464c0,22.06,17.94,40,40,40h224
	c22.06,0,40-17.94,40-40V144C504,121.94,486.06,104,464,104z M248,259.65l27.28-27.28L265.14,216H456v272H248V259.65z M456,200
	H270.49c1.69-4.16,3.2-8.38,4.44-12.7l21.07-4.96V152h160V200z M178.7,260.66l-4.76,1.17L169.66,280h-35.33l-4.28-18.18l-4.76-1.17
	c-11.02-2.7-21.52-7.06-31.23-12.95l-4.18-2.54l-15.89,9.83l-24.98-24.98l9.83-15.89l-2.54-4.19c-5.89-9.72-10.25-20.22-12.94-31.23
	l-1.17-4.76L24,169.66v-35.33l18.18-4.28l1.17-4.76c2.69-11,7.05-21.51,12.94-31.23l2.54-4.19L49,73.98L73.98,49l15.89,9.83
	l4.18-2.54c9.71-5.9,20.22-10.25,31.23-12.95l4.76-1.17L134.34,24h35.33l4.28,18.18l4.76,1.17c11.02,2.7,21.52,7.06,31.23,12.95
	l4.18,2.54l15.89-9.83l24.98,24.98l-9.83,15.89l2.54,4.19c5.89,9.72,10.25,20.22,12.94,31.23l1.17,4.76l18.19,4.27v35.33
	l-18.18,4.28l-1.17,4.76c-2.69,11-7.05,21.51-12.94,31.23l-2.54,4.19l9.83,15.89L230.02,255l-15.89-9.83l-4.18,2.54
	C200.22,253.6,189.72,257.96,178.7,260.66L178.7,260.66z M216,464V265.14l16,9.9v211.48C222.71,483.22,216,474.42,216,464L216,464z
	 M488,464c0,10.42-6.71,19.22-16,22.53V152c0-8.82-7.18-16-16-16H296v-14.34l-7.07-1.66H464c13.23,0,24,10.77,24,24V464z"/>
<path d="M352,360c-13.23,0-24,10.77-24,24c0,10.42,6.71,19.22,16,22.53V424h16v-17.47c9.29-3.31,16-12.11,16-22.53
	C376,370.77,365.23,360,352,360z M352,392c-4.42,0-8-3.59-8-8s3.58-8,8-8s8,3.59,8,8S356.42,392,352,392z"/>
<path d="M400,328v-32c0-26.47-21.53-48-48-48s-48,21.53-48,48v32c-13.23,0-24,10.77-24,24v80c0,13.23,10.77,24,24,24h96
	c13.23,0,24-10.77,24-24v-80C424,338.77,413.23,328,400,328z M320,296c0-17.65,14.35-32,32-32s32,14.35,32,32v32h-64V296z M408,432
	c0,4.41-3.58,8-8,8h-96c-4.42,0-8-3.59-8-8v-80c0-4.41,3.58-8,8-8h96c4.42,0,8,3.59,8,8V432z"/>
<path d="M248,152c0-52.94-43.06-96-96-96s-96,43.06-96,96s43.06,96,96,96S248,204.94,248,152z M152,232c-44.11,0-80-35.89-80-80
	s35.89-80,80-80s80,35.89,80,80S196.11,232,152,232z"/>
<path d="M152,104c-26.47,0-48,21.53-48,48s21.53,48,48,48s48-21.53,48-48S178.47,104,152,104z M152,184c-17.65,0-32-14.35-32-32
	s14.35-32,32-32s32,14.35,32,32S169.65,184,152,184z"/>
<path d="M408,168h16v16h-16V168z"/>
<path d="M376,168h16v16h-16V168z"/>
<path d="M344,168h16v16h-16V168z"/>
<path d="M160,440c-10.42,0-19.22,6.71-22.53,16H64c-13.23,0-24-10.77-24-24v-48H24v48c0,22.06,17.94,40,40,40h73.47
	c3.31,9.29,12.11,16,22.53,16c13.23,0,24-10.77,24-24S173.23,440,160,440z M160,472c-4.42,0-8-3.59-8-8s3.58-8,8-8s8,3.59,8,8
	S164.42,472,160,472z"/>
<path d="M56,384c0,13.23,10.77,24,24,24h33.47c3.31,9.29,12.11,16,22.53,16c13.23,0,24-10.77,24-24s-10.77-24-24-24
	c-10.42,0-19.22,6.71-22.53,16H80c-4.42,0-8-3.59-8-8v-32H56V384z M136,392c4.42,0,8,3.59,8,8s-3.58,8-8,8s-8-3.59-8-8
	S131.58,392,136,392z"/>
<path d="M56,320h16v16H56V320z"/>
<path d="M56,288h16v16H56V288z"/>
<path d="M24,352h16v16H24V352z"/>
<path d="M24,320h16v16H24V320z"/>
<path d="M24,288h16v16H24V288z"/>
<path d="M424,232h16v16h-16V232z"/>
<path d="M424,264h16v16h-16V264z"/>
<path d="M424,296h16v16h-16V296z"/>
</svg>
