<?xml version="1.0" encoding="utf-8"?>
<!-- Generator: Adobe Illustrator 23.1.1, SVG Export Plug-In . SVG Version: 6.00 Build 0)  -->
<svg version="1.1" id="Layer_35" xmlns="http://www.w3.org/2000/svg" xmlns:xlink="http://www.w3.org/1999/xlink" x="0px" y="0px"
	 width="50px" height="50px" viewBox="0 0 512 512" style="enable-background:new 0 0 512 512;" xml:space="preserve">
<style type="text/css">
	.st0{fill:#F9D778;}
	.st1{fill:#5FD9DB;}
	.st2{fill:#C6C6C6;}
</style>
<g>
	<path class="st0" d="M160,448v48H16v-96h144V448z"/>
	<path class="st0" d="M496,16v96H352V64V16H496z"/>
	<path class="st0" d="M88,24l64,48l-64,48L24,72L88,24z"/>
	<path class="st0" d="M496,208v96h-80v-48v-48H496z"/>
	<circle class="st0" cx="64" cy="256" r="48"/>
	<circle class="st0" cx="448" cy="448" r="48"/>
</g>
<path class="st1" d="M331.28,284.72c2.96,2.88,4.72,6.88,4.72,11.28c0,8.8-7.2,16-16,16H192c-4.4,0-8.4-1.76-11.28-4.72
	C177.76,304.4,176,300.4,176,296c0-8.8,7.2-16,16-16h128C324.4,280,328.4,281.76,331.28,284.72z"/>
<path class="st1" d="M331.28,204.72c2.96,2.88,4.72,6.88,4.72,11.28c0,8.8-7.2,16-16,16H192c-4.4,0-8.4-1.76-11.28-4.72
	C177.76,224.4,176,220.4,176,216c0-8.8,7.2-16,16-16h128C324.4,200,328.4,201.76,331.28,204.72z"/>
<path class="st2" d="M360,328v16c0,8.8-7.2,16-16,16h-64h-48h-64c-8.8,0-16-7.2-16-16v-16c0-8.8,7.2-16,16-16h24h128h24
	C352.8,312,360,319.2,360,328z"/>
<path class="st2" d="M360,256v8c0,8.8-7.2,16-16,16h-24H192h-24c-8.8,0-16-7.2-16-16v-8v-8c0-8.8,7.2-16,16-16h24h128h24
	c8.8,0,16,7.2,16,16V256z"/>
<path class="st2" d="M360,168v16c0,8.8-7.2,16-16,16h-24H192h-24c-8.8,0-16-7.2-16-16v-16c0-8.8,7.2-16,16-16h64h48h64
	C352.8,152,360,159.2,360,168z"/>
<path d="M432,456h32v16h-32V456z"/>
<path d="M432,424h32v16h-32V424z"/>
<path d="M48,264h32v16H48V264z"/>
<path d="M48,232h32v16H48V232z"/>
<path d="M504,120V8H344v48h-32c-22.06,0-40,17.94-40,40v48h-32v-40c0-22.06-17.94-40-40-40h-45.33L88,14L10.66,72L88,130l66.67-50
	H200c13.23,0,24,10.77,24,24v40h-56c-13.23,0-24,10.77-24,24v16c0,13.23,10.77,24,24,24h1.47c-0.9,2.51-1.47,5.18-1.47,8
	s0.58,5.49,1.47,8H168c-13.23,0-24,10.77-24,24h-24.64c-3.9-27.1-27.21-48-55.36-48c-30.87,0-56,25.12-56,56s25.13,56,56,56
	c28.15,0,51.46-20.9,55.36-48H144c0,13.23,10.77,24,24,24h1.47c-0.9,2.51-1.47,5.18-1.47,8s0.58,5.49,1.47,8H168
	c-13.23,0-24,10.77-24,24v16c0,13.23,10.77,24,24,24h56v48c0,13.23-10.77,24-24,24h-32v-48H8v112h160v-48h32c22.06,0,40-17.94,40-40
	v-48h32v48c0,22.06,17.94,40,40,40h80.64c3.9,27.1,27.21,48,55.36,48c30.87,0,56-25.12,56-56s-25.13-56-56-56
	c-28.15,0-51.46,20.9-55.36,48H312c-13.23,0-24-10.77-24-24v-48h56c13.23,0,24-10.77,24-24v-16c0-13.23-10.77-24-24-24h-1.47
	c0.9-2.51,1.47-5.18,1.47-8s-0.58-5.49-1.47-8H344c13.23,0,24-10.77,24-24h40v48h96V200h-96v48h-40c0-13.23-10.77-24-24-24h-1.47
	c0.9-2.51,1.47-5.18,1.47-8s-0.58-5.49-1.47-8H344c13.23,0,24-10.77,24-24v-16c0-13.23-10.77-24-24-24h-56V96
	c0-13.23,10.77-24,24-24h32v48H504z M88,110L37.34,72L88,34l50.66,38L88,110z M64,296c-22.06,0-40-17.94-40-40s17.94-40,40-40
	s40,17.94,40,40S86.06,296,64,296z M152,488H24v-80h128V488z M448,408c22.06,0,40,17.94,40,40s-17.94,40-40,40s-40-17.94-40-40
	S425.94,408,448,408z M424,216h64v80h-64V216z M352,328v16c0,4.41-3.58,8-8,8H168c-4.42,0-8-3.59-8-8v-16c0-4.41,3.58-8,8-8h24h128
	h24C348.42,320,352,323.59,352,328z M328,296c0,4.41-3.58,8-8,8H192c-4.42,0-8-3.59-8-8s3.58-8,8-8h128
	C324.42,288,328,291.59,328,296z M352,248v16c0,4.41-3.58,8-8,8h-24H192h-24c-4.42,0-8-3.59-8-8v-16c0-4.41,3.58-8,8-8h24h128h24
	C348.42,240,352,243.59,352,248z M328,216c0,4.41-3.58,8-8,8H192c-4.42,0-8-3.59-8-8s3.58-8,8-8h128C324.42,208,328,211.59,328,216z
	 M352,168v16c0,4.41-3.58,8-8,8h-24H192h-24c-4.42,0-8-3.59-8-8v-16c0-4.41,3.58-8,8-8h176C348.42,160,352,163.59,352,168z M360,24
	h128v80H360V24z"/>
<path d="M40,424h16v16H40V424z"/>
<path d="M72,424h16v16H72V424z"/>
<path d="M104,424h32v16h-32V424z"/>
<path d="M40,456h96v16H40V456z"/>
<path d="M376,40h96v16h-96V40z"/>
<path d="M376,72h96v16h-96V72z"/>
<path d="M64,64h48v16H64V64z"/>
<path d="M440,232h32v16h-32V232z"/>
<path d="M440,264h32v16h-32V264z"/>
</svg>
