<?xml version="1.0" encoding="utf-8"?>
<!-- Generator: Adobe Illustrator 23.1.1, SVG Export Plug-In . SVG Version: 6.00 Build 0)  -->
<svg version="1.1" id="Слой_1" xmlns="http://www.w3.org/2000/svg" xmlns:xlink="http://www.w3.org/1999/xlink" x="0px" y="0px"
	 width="120px" height="120px" viewBox="0 0 512 512" style="enable-background:new 0 0 512 512;" xml:space="preserve">
<style type="text/css">
	.st0{fill:#CFF1FB;}
	.st1{fill:#CBE558;}
	.st2{fill:#F5737F;}
	.st3{fill:#D8EC84;}
</style>
<path class="st0" d="M436,322c0,99.41-80.59,180-180,180S76,421.41,76,322s80.59-180,180-180S436,222.59,436,322z"/>
<g>
	<path class="st1" d="M165,340.11c-0.18-0.18-0.37-0.36-0.56-0.54l-24.22-21.48c-2.37-2.11-5.43-3.27-8.6-3.27H76.16
		C76.06,317.21,76,319.6,76,322c0,46.21,17.42,88.34,46.04,120.21l15.6-28.97c2.26-4.2,6.64-6.82,11.41-6.82
		c5.4,0,10.24-3.35,12.14-8.41l7.48-19.95c0.86-2.29,2.34-4.28,4.28-5.76l1.96-1.49c6.24-4.76,6.86-13.93,1.31-19.48L165,340.11z"/>
	<path class="st1" d="M85.29,264.77l25.41-18.48c2.81-2.04,6.19-3.14,9.66-3.14h15.78c9.34,0,16.79-7.77,16.41-17.1
		c-0.19-4.59,1.55-9.04,4.8-12.29l1-1c3.46-3.46,8.27-5.2,13.14-4.74l24.09,2.24c6.67,0.62,13.05-2.87,16.12-8.82l13.1-25.38
		c4.07-7.89,1.14-17.58-6.62-21.89l-10.23-5.68C150.26,164.44,104.19,208.37,85.29,264.77z"/>
	<path class="st1" d="M402.58,217.51h-78.77c-1.1,0-2.18-0.23-3.2-0.66l-14.04-6.11c-1.01-0.44-2.09-0.66-3.2-0.66H283.6
		c-2.42,0-4.71,1.1-6.23,2.98l-12.39,15.36c-2.25,2.79-2.38,6.72-0.31,9.65c2.85,4.04,1.4,9.66-3.04,11.82l-14.53,7.07
		c-2.76,1.34-4.51,4.14-4.51,7.2v15.23c0,4.43-3.59,8.01-8.01,8.01c-6.49,0-12.44,3.64-15.39,9.42l-3.74,7.33
		c-5.98,11.72-3.73,25.96,5.57,35.27l18.91,18.91c1.5,1.5,3.54,2.34,5.66,2.34h12.99c3.75,0,7,2.61,7.82,6.27l4.45,19.97
		c0.13,0.57,0.19,1.16,0.19,1.74v25.05c0,18.94,15.35,34.29,34.29,34.29c2.19,0,4.28-0.89,5.79-2.48l46.54-48.73
		c1.42-1.49,2.21-3.47,2.21-5.53v-50.7c0-4.88,2.41-9.45,6.45-12.2l6.57-4.49c6.23-4.25,14.66-3.12,19.55,2.61l2.59,3.03
		c5.59,6.55,15.58,6.95,21.67,0.86c2.77-2.77,6.52-4.32,10.44-4.32h8.79c0.03-1.35,0.05-2.7,0.05-4.05
		C436,283.04,423.62,246.97,402.58,217.51z"/>
</g>
<path class="st2" d="M280,34c0,13.25-10.75,24-24,24s-24-10.75-24-24s10.75-24,24-24S280,20.75,280,34z"/>
<path class="st3" d="M66,38c0,15.46-12.54,28-28,28S10,53.46,10,38s12.54-28,28-28S66,22.54,66,38z"/>
<path class="st3" d="M502,38c0,15.46-12.54,28-28,28s-28-12.54-28-28s12.54-28,28-28S502,22.54,502,38z"/>
<path d="M512,38c0-10.15-3.95-19.69-11.13-26.87C493.69,3.95,484.15,0,474,0s-19.69,3.95-26.87,11.13C439.95,18.31,436,27.85,436,38
	s3.95,19.69,11.13,26.87c4.56,4.56,10.08,7.81,16.09,9.58v100.91l-46.09,46.09c-31.94-51-87.39-85.83-151.05-89.18l-0.04-65.79
	C279.9,62.19,290,49.25,290,34c0-18.75-15.25-34-34-34s-34,15.25-34,34c0,15.29,10.14,28.24,24.04,32.51l0.04,65.75
	c-13.58,0.7-26.77,2.84-39.46,6.26c-0.96,0.12-1.89,0.37-2.77,0.75c-45.66,13.05-84.34,42.79-109,82.17l-46.09-46.09V74.45
	c6.02-1.77,11.54-5.02,16.09-9.58C72.05,57.69,76,48.15,76,38s-3.95-19.69-11.13-26.87C57.69,3.95,48.15,0,38,0
	S18.31,3.95,11.13,11.13C3.95,18.31,0,27.85,0,38s3.95,19.69,11.13,26.87c4.95,4.95,11.02,8.36,17.65,10.01V179.5
	c0,2.65,1.05,5.2,2.93,7.07l53.09,53.08C72.75,264.58,66,292.52,66,322c0,87,58.81,162.72,143.01,184.14
	c0.83,0.21,1.66,0.31,2.47,0.31c4.46,0,8.54-3.01,9.69-7.54c1.36-5.35-1.88-10.79-7.23-12.16c-31.18-7.93-58.46-24.2-79.74-46.05
	l12.24-22.73c0.52-0.96,1.52-1.56,2.61-1.56c9.52,0,18.16-5.99,21.5-14.9l7.48-19.95c0.2-0.52,0.54-0.98,0.98-1.32l1.96-1.49
	c5.27-4.02,8.55-10.11,9-16.72c0.44-6.61-1.99-13.09-6.68-17.78l-11.23-11.23c-0.32-0.32-0.66-0.64-0.99-0.93l-24.22-21.48
	c-4.21-3.73-9.62-5.78-15.24-5.78H86.86c1.18-11.69,3.55-23.04,6.98-33.91l22.75-16.54c1.11-0.8,2.41-1.23,3.78-1.23h15.78
	c7.26,0,14.04-2.89,19.06-8.12c5.03-5.24,7.64-12.12,7.34-19.38c-0.07-1.79,0.61-3.54,1.88-4.8l1-1c1.36-1.36,3.23-2.03,5.14-1.86
	l24.1,2.24c10.78,1,20.96-4.57,25.93-14.19l13.1-25.38c4.62-8.95,3.7-19.21-1.59-26.96c7.81-1.11,15.79-1.69,23.9-1.69
	c49.68,0,94.45,21.42,125.55,55.51h-57.33l-13.66-5.94c-2.28-0.99-4.7-1.5-7.18-1.5H283.6c-5.47,0-10.58,2.45-14.02,6.71
	l-12.39,15.36c-4.54,5.62-5.21,13.43-1.91,19.71l-12.56,6.11c-6.16,2.99-10.13,9.35-10.13,16.19v13.32
	c-9.5,0.68-17.92,6.22-22.3,14.8l-3.74,7.33c-7.98,15.63-5.01,34.48,7.41,46.89l18.91,18.9c3.4,3.4,7.92,5.28,12.73,5.28h11.39
	l4.06,18.2v24.83c0,24.42,19.87,44.29,44.29,44.29c4.89,0,9.64-2.03,13.02-5.57l46.54-48.73c3.21-3.37,4.99-7.79,4.99-12.44v-50.7
	c0-1.57,0.78-3.05,2.08-3.94l6.58-4.48c2.01-1.38,4.73-1.02,6.31,0.84l2.59,3.03c4.47,5.24,10.98,8.4,17.86,8.67
	c6.89,0.3,13.62-2.36,18.49-7.23c0.46-0.46,1.01-0.82,1.6-1.05c-6.02,71.58-56.59,132.26-127.11,150.31
	c-5.35,1.37-8.58,6.82-7.21,12.16c1.37,5.35,6.82,8.58,12.17,7.21C387.3,484.56,446,408.87,446,322c0-29.48-6.75-57.42-18.79-82.35
	l53.09-53.08c1.88-1.88,2.93-4.42,2.93-7.07V74.88c6.62-1.64,12.7-5.06,17.65-10.01C508.05,57.69,512,48.15,512,38z M20,38
	c0-4.81,1.87-9.33,5.27-12.73C28.67,21.87,33.19,20,38,20s9.33,1.87,12.73,5.27C54.13,28.67,56,33.19,56,38s-1.87,9.33-5.27,12.73
	C47.33,54.13,42.81,56,38,56s-9.33-1.87-12.73-5.27C21.87,47.33,20,42.81,20,38z M256,20c7.72,0,14,6.28,14,14s-6.28,14-14,14
	s-14-6.28-14-14S248.28,20,256,20z M133.57,325.58l24.23,21.5c0.04,0.04,0.09,0.08,0.12,0.11l11.22,11.22
	c0.83,0.83,0.89,1.79,0.86,2.29c-0.04,0.5-0.23,1.45-1.16,2.16l-1.96,1.49c-3.44,2.62-6.07,6.15-7.58,10.2l-7.48,19.95
	c-0.43,1.15-1.55,1.92-2.77,1.92c-8.46,0-16.21,4.62-20.22,12.07l-8.59,15.95c-21.12-28.02-33.61-62.62-34.22-99.61h45.58
	C132.34,324.83,133.04,325.1,133.57,325.58z M213.32,162.92c3.05,1.7,4.19,5.46,2.59,8.56l-13.1,25.38c-1.21,2.34-3.69,3.7-6.3,3.45
	l-24.1-2.24c-7.85-0.73-15.55,2.05-21.13,7.63l-1,1c-5.21,5.21-8.02,12.41-7.71,19.77c0.07,1.77-0.56,3.44-1.79,4.71
	c-1.22,1.27-2.87,1.97-4.64,1.97h-15.78c-3.69,0-7.27,0.77-10.58,2.22c21.49-36.14,55.98-63.67,96.99-76.09L213.32,162.92z
	 M409.65,323.3c-1.28,1.29-2.77,1.43-3.55,1.39c-0.78-0.03-2.26-0.29-3.44-1.67l-2.59-3.03c-8.23-9.64-22.33-11.53-32.8-4.38
	l-6.57,4.48c-6.77,4.62-10.8,12.27-10.8,20.46v49.91l-45.39,47.52c-13.01-0.44-23.45-11.16-23.45-24.28v-25.05
	c0-1.31-0.14-2.63-0.43-3.92l-4.45-19.98c-1.85-8.3-9.08-14.09-17.58-14.09h-12.16l-18.32-18.32c-6.26-6.26-7.77-15.77-3.74-23.65
	l3.74-7.33c1.25-2.45,3.73-3.97,6.48-3.97c9.93,0,18.01-8.08,18.01-18.01V265.4l13.41-6.52c4.76-2.32,8.25-6.58,9.57-11.71
	c1.19-4.63,0.49-9.5-1.91-13.59l10.89-13.5h18.42l13.67,5.95c2.28,0.99,4.69,1.49,7.18,1.49h73.44
	c17.12,25.51,27.51,55.88,28.63,88.57C419.75,316.39,414.03,318.93,409.65,323.3z M486.73,50.73c-3.4,3.4-7.92,5.27-12.73,5.27
	s-9.33-1.87-12.73-5.27c-3.4-3.4-5.27-7.92-5.27-12.73s1.87-9.33,5.27-12.73c3.4-3.4,7.92-5.27,12.73-5.27s9.33,1.87,12.73,5.27
	c3.4,3.4,5.27,7.92,5.27,12.73S490.13,47.33,486.73,50.73z"/>
<path d="M256,492c-2.63,0-5.21,1.07-7.07,2.93S246,499.37,246,502s1.07,5.21,2.93,7.07S253.37,512,256,512s5.21-1.07,7.07-2.93
	S266,504.63,266,502s-1.07-5.21-2.93-7.07S258.63,492,256,492z"/>
</svg>
