<?xml version="1.0" encoding="utf-8"?>
<!-- Generator: Adobe Illustrator 23.1.1, SVG Export Plug-In . SVG Version: 6.00 Build 0)  -->
<svg version="1.1" id="Слой_1" xmlns="http://www.w3.org/2000/svg" xmlns:xlink="http://www.w3.org/1999/xlink" x="0px" y="0px"
	 width="120px" height="120px" viewBox="0 0 512 512" style="enable-background:new 0 0 512 512;" xml:space="preserve">
<style type="text/css">
	.st0{fill:#DFF6FC;}
	.st1{fill:#FFDDCF;}
	.st2{fill:#FFFFFF;}
	.st3{fill:#F5737F;}
	.st4{fill:#91DEF5;}
	.st5{fill:#E2F1A1;}
	.st6{fill:#CBE558;}
	.st7{fill:#D8EC84;}
</style>
<path class="st0" d="M20,386.57l45.57-45.57c2.21-2.21,5.8-2.21,8.01,0l114.2,114.2c2.21,2.21,2.21,5.8,0,8.01L149,502L20,386.57z"
	/>
<path class="st1" d="M89.3,354.28l69.78-37.26c26.48-14.14,57.38-17.55,86.29-9.52l89.99,24.97c11.61,3.22,19.21,14.33,18.02,26.32
	c-1.27,12.66-11.91,22.3-24.63,22.3h-114.4l70.14,0.07h-0.03h43.89c14.64,0,28.73-5.55,39.45-15.52l78.55-73.15
	c9.39-8.75,23.69-9.54,33.99-1.9c13.36,9.91,14.45,29.52,2.28,40.85l-91.17,84.87C369.54,436.67,340.74,448,310.83,448h-125.5
	L89.3,354.28z"/>
<path class="st2" d="M422.67,138.93c0,71.21-57.73,128.94-128.94,128.94s-128.94-57.73-128.94-128.94S222.52,10,293.73,10
	S422.67,67.72,422.67,138.93z"/>
<path class="st3" d="M446.67,128.98c0,13.25-10.75,24-24,24s-24-10.75-24-24s10.75-24,24-24S446.67,115.73,446.67,128.98z"/>
<path class="st4" d="M188.79,148.88c0,13.25-10.75,24-24,24c-13.26,0-24-10.75-24-24c0-13.26,10.74-24,24-24
	C178.05,124.88,188.79,135.62,188.79,148.88z"/>
<path class="st5" d="M293.73,68.5l-61,35.22v70.44l61,35.22l61-35.22v-70.44L293.73,68.5z"/>
<path class="st6" d="M354.73,174.15v-70.44l-61,35.22v70.44L354.73,174.15z"/>
<path class="st7" d="M232.73,174.15v-70.44l61,35.22v70.44L232.73,174.15z"/>
<path d="M164.79,182.88c18.75,0,34-15.25,34-34c0-14.52-9.14-26.93-21.97-31.8c4.38-23.65,15.63-45.07,32.81-62.25
	c39.35-39.35,101.79-46.05,148.48-15.94c4.64,2.99,10.83,1.66,13.82-2.98c3-4.64,1.66-10.83-2.98-13.82
	C342.68,5.14,310.98-2.46,279.71,0.7c-31.73,3.2-61.64,17.4-84.23,39.99c-20.65,20.65-33.98,46.56-38.75,75.17
	c-14.87,3.63-25.94,17.05-25.94,33.03C130.79,167.63,146.04,182.88,164.79,182.88z M164.79,134.88c7.72,0,14,6.28,14,14
	c0,7.72-6.28,14-14,14c-7.72,0-14-6.28-14-14C150.79,141.16,157.07,134.88,164.79,134.88z"/>
<path d="M226.91,237.36c-4.57-3.11-10.79-1.93-13.89,2.64c-3.11,4.57-1.93,10.79,2.64,13.89c23.67,16.11,50.87,23.98,77.94,23.98
	c35.87,0,71.51-13.84,98.38-40.7c20.64-20.64,33.97-46.56,38.75-75.16c14.87-3.63,25.95-17.06,25.95-33.03c0-18.75-15.25-34-34-34
	c-18.75,0-34,15.25-34,34c0,14.52,9.14,26.93,21.98,31.8c-4.38,23.66-15.64,45.09-32.81,62.25
	C337.48,263.39,274.01,269.41,226.91,237.36z M422.67,114.98c7.72,0,14,6.28,14,14s-6.28,14-14,14s-14-6.28-14-14
	S414.95,114.98,422.67,114.98z"/>
<path d="M288.73,218.03c1.55,0.89,3.27,1.34,5,1.34s3.45-0.45,5-1.34l61-35.22c3.09-1.79,5-5.09,5-8.66v-70.44
	c0-3.57-1.91-6.88-5-8.66l-61-35.22c-3.09-1.79-6.91-1.79-10,0l-61,35.22c-3.09,1.79-5,5.09-5,8.66v70.44c0,3.57,1.91,6.88,5,8.66
	L288.73,218.03z M242.73,121.04l41,23.67v47.34l-41-23.67V121.04z M303.73,192.05v-47.34l41-23.67v47.34L303.73,192.05z
	 M293.73,80.04l41,23.67l-41,23.67l-41-23.67L293.73,80.04z"/>
<path d="M501.02,309.91c-0.61-10.89-5.98-20.87-14.74-27.37c-14.18-10.52-33.84-9.42-46.77,2.61l-76.02,70.8
	c-0.14-15.35-10.36-28.93-25.46-33.12l-89.98-24.97c-31.54-8.75-64.81-5.08-93.68,10.34l-64.82,34.62l-8.89-8.89
	c-6.11-6.11-16.05-6.11-22.16,0l-45.57,45.57c-3.91,3.91-3.91,10.24,0,14.14s10.24,3.91,14.14,0l42.51-42.51L177.65,459.2
	l-35.73,35.73c-3.9,3.91-3.9,10.24,0,14.14c1.95,1.95,4.51,2.93,7.07,2.93s5.12-0.98,7.07-2.93l38.79-38.79
	c3.36-3.36,4.86-7.88,4.52-12.28h111.45c32.54,0,63.59-12.21,87.41-34.39l91.17-84.88C497.4,331.31,501.63,320.8,501.02,309.91z
	 M475.78,324.1l-91.17,84.87C364.5,427.69,338.3,438,310.83,438h-125.5c-0.19,0-0.38,0.02-0.57,0.03l-80.43-80.43l59.46-31.75
	c24.32-12.99,52.34-16.08,78.91-8.71l89.98,24.97c6.94,1.93,11.46,8.52,10.74,15.69c-0.75,7.58-7.07,13.29-14.68,13.29H214.34
	c-5.52,0-10,4.48-10,10c0,5.52,4.47,10,9.99,10l70.11,0.07h43.89c17.23,0,33.66-6.46,46.26-18.21l78.55-73.15
	c5.86-5.46,14.79-5.96,21.21-1.18c3.98,2.95,6.41,7.47,6.69,12.41C481.32,315.96,479.41,320.73,475.78,324.1z"/>
<path d="M396.53,71.09c2.63,0,5.21-1.07,7.07-2.93c1.86-1.87,2.93-4.44,2.93-7.08c0-2.63-1.07-5.2-2.93-7.07
	c-1.86-1.86-4.44-2.92-7.07-2.92c-2.63,0-5.21,1.06-7.07,2.92c-1.86,1.86-2.93,4.44-2.93,7.07c0,2.64,1.07,5.22,2.93,7.08
	C391.32,70.02,393.9,71.09,396.53,71.09z"/>
<path d="M189.05,204.24c-2.64,0-5.21,1.07-7.07,2.93c-1.87,1.86-2.93,4.44-2.93,7.07c0,2.63,1.06,5.21,2.93,7.07
	c1.86,1.86,4.43,2.93,7.07,2.93c2.63,0,5.2-1.07,7.07-2.93c1.86-1.86,2.93-4.44,2.93-7.07c0-2.63-1.07-5.21-2.93-7.07
	S191.68,204.24,189.05,204.24z"/>
</svg>
