<?xml version="1.0" encoding="utf-8"?>
<!-- Generator: Adobe Illustrator 23.1.1, SVG Export Plug-In . SVG Version: 6.00 Build 0)  -->
<svg version="1.1" id="Слой_1" xmlns="http://www.w3.org/2000/svg" xmlns:xlink="http://www.w3.org/1999/xlink" x="0px" y="0px"
	 width="120px" height="120px" viewBox="0 0 512 512" style="enable-background:new 0 0 512 512;" xml:space="preserve">
<style type="text/css">
	.st0{fill:#79B2FF;}
	.st1{fill:#B0E7F8;}
	.st2{fill:#F5737F;}
	.st3{fill:#FFCBBE;}
	.st4{fill:#D8EC84;}
	.st5{fill:#FFCB7C;}
</style>
<path class="st0" d="M308.01,304.75c0,28.72-23.29,52.01-52.01,52.01s-52.01-23.29-52.01-52.01c0-28.73,23.29-52.01,52.01-52.01
	S308.01,276.02,308.01,304.75z"/>
<path class="st1" d="M336.02,114c0,44.19-35.82,80.02-80.02,80.02S175.98,158.2,175.98,114S211.81,33.99,256,33.99
	S336.02,69.81,336.02,114z"/>
<path class="st2" d="M289.48,138.57l-13.24-2.47l-40.54,0.01l-13.19,2.46c-10.76,2.01-18.56,11.39-18.56,22.34v13.87
	c13.99,11.99,32.17,19.24,52.04,19.24s38.05-7.25,52.04-19.24v-13.87C308.04,149.97,300.24,140.58,289.48,138.57z"/>
<path class="st3" d="M256,83.32c-14.37,0-26.02,11.65-26.02,26.02v10.41c0,14.37,11.65,26.02,26.02,26.02s26.02-11.65,26.02-26.02
	v-10.41C282.02,94.97,270.37,83.32,256,83.32z"/>
<path class="st1" d="M170.03,397.2c0,44.19-35.82,80.02-80.01,80.02C45.82,477.22,10,441.39,10,397.2s35.82-80.02,80.02-80.02
	C134.2,317.19,170.03,353.01,170.03,397.2z"/>
<path class="st4" d="M123.5,421.77l-13.23-2.47l-40.54,0.01l-13.19,2.46c-10.76,2.01-18.56,11.39-18.56,22.34v13.87
	c13.99,11.99,32.17,19.24,52.04,19.24c19.87,0,38.05-7.25,52.04-19.24v-13.87C142.05,433.16,134.25,423.78,123.5,421.77z"/>
<path class="st3" d="M90.02,366.52c-14.37,0-26.02,11.65-26.02,26.02v10.41c0,14.37,11.65,26.02,26.02,26.02
	s26.02-11.65,26.02-26.02v-10.41C116.04,378.17,104.39,366.52,90.02,366.52z"/>
<path class="st1" d="M502,397.2c0,44.19-35.82,80.02-80.02,80.02c-44.19,0-80.01-35.82-80.01-80.02s35.82-80.02,80.01-80.02
	C466.18,317.19,502,353.01,502,397.2z"/>
<path class="st5" d="M388.5,421.77l13.23-2.47l40.54,0.01l13.19,2.46c10.76,2.01,18.56,11.39,18.56,22.34v13.87
	c-13.99,11.99-32.17,19.24-52.04,19.24c-19.87,0-38.05-7.25-52.04-19.24v-13.87C369.95,433.16,377.75,423.78,388.5,421.77z"/>
<path class="st3" d="M421.98,366.52c14.37,0,26.02,11.65,26.02,26.02v10.41c0,14.37-11.65,26.02-26.02,26.02
	s-26.02-11.65-26.02-26.02v-10.41C395.96,378.17,407.61,366.52,421.98,366.52z"/>
<path d="M421.98,307.19c-30.75,0-57.95,15.5-74.19,39.1c-0.32-0.24-0.66-0.47-1.01-0.68l-32.8-18.93
	c2.59-6.82,4.02-14.21,4.02-21.93c0-30.79-22.55-56.39-52.01-61.19v-37.87c0-0.76-0.09-1.49-0.25-2.2
	c45.06-4.88,80.27-43.14,80.27-89.48c0-30.73-15.44-59.03-41.29-75.7c-4.64-2.99-10.83-1.66-13.82,2.98
	c-2.99,4.64-1.66,10.83,2.99,13.82C314,68.09,326.02,90.1,326.02,114c0,13.09-3.62,25.35-9.9,35.84
	c-3.84-10.68-13.11-18.93-24.8-21.11l-0.41-0.07c0.73-2.86,1.12-5.84,1.12-8.92v-10.41c0-19.86-16.16-36.02-36.02-36.02
	c-19.86,0-36.02,16.16-36.02,36.02v10.41c0,3.08,0.39,6.07,1.12,8.92l-0.41,0.07c-11.69,2.18-20.95,10.43-24.79,21.11
	c-6.28-10.49-9.9-22.75-9.9-35.84c0-24,12.08-46.06,32.32-59.02c4.65-2.98,6.01-9.16,3.03-13.81c-2.98-4.65-9.16-6.01-13.81-3.03
	C181.52,54.8,165.99,83.16,165.99,114c0,46.34,35.2,84.61,80.27,89.48c-0.16,0.71-0.25,1.45-0.25,2.2v37.87
	c-29.45,4.8-52.01,30.41-52.01,61.19c0,7.72,1.43,15.11,4.02,21.93l-32.8,18.93c-0.36,0.21-0.69,0.43-1.01,0.68
	c-16.24-23.6-43.44-39.1-74.19-39.1C40.38,307.19,0,347.57,0,397.2s40.38,90.02,90.02,90.02c49.63,0,90.01-40.38,90.01-90.02
	c0-11.84-2.3-23.15-6.48-33.52c0.57-0.2,1.12-0.43,1.66-0.75l32.81-18.95c11.38,13.89,28.66,22.77,47.97,22.77
	s36.59-8.88,47.97-22.77l32.81,18.95c0.54,0.31,1.1,0.55,1.66,0.75c-4.18,10.37-6.48,21.68-6.48,33.52
	c0,49.63,40.38,90.02,90.01,90.02c49.64,0,90.02-40.38,90.02-90.02S471.62,307.19,421.98,307.19z M47.97,453.15v-9.04
	c0-6.12,4.37-11.39,10.39-12.51l8.03-1.5c6.33,5.51,14.59,8.86,23.62,8.86c9.04,0,17.3-3.35,23.62-8.86l8.03,1.5
	c6.02,1.12,10.39,6.38,10.39,12.51v9.04c-11.71,8.83-26.28,14.07-42.04,14.07S59.69,461.98,47.97,453.15z M106.04,402.95
	c0,8.84-7.19,16.02-16.02,16.02c-8.84,0-16.02-7.19-16.02-16.02v-10.41c0-8.84,7.19-16.02,16.02-16.02
	c8.83,0,16.02,7.19,16.02,16.02V402.95z M150.13,433.05c-3.84-10.68-13.11-18.93-24.8-21.11l-0.41-0.08
	c0.73-2.85,1.12-5.84,1.12-8.92v-10.41c0-19.86-16.16-36.02-36.02-36.02s-36.02,16.16-36.02,36.02v10.41c0,3.08,0.39,6.07,1.12,8.92
	l-0.41,0.08c-11.69,2.18-20.95,10.42-24.8,21.11C23.62,422.55,20,410.3,20,397.2c0-38.61,31.41-70.02,70.02-70.02
	c38.61,0,70.01,31.41,70.01,70.02C160.03,410.3,156.41,422.55,150.13,433.05z M239.98,109.34c0-8.84,7.18-16.02,16.02-16.02
	c8.83,0,16.02,7.19,16.02,16.02v10.41c0,8.84-7.18,16.02-16.02,16.02s-16.02-7.19-16.02-16.02V109.34z M224.35,148.4l8.03-1.5
	c6.33,5.51,14.59,8.86,23.62,8.86s17.29-3.35,23.62-8.86l8.03,1.5c6.02,1.12,10.39,6.38,10.39,12.51v9.04
	c-11.71,8.83-26.27,14.07-42.04,14.07s-30.33-5.24-42.04-14.07v-9.04C213.96,154.79,218.33,149.52,224.35,148.4z M256,346.76
	c-23.16,0-42.01-18.84-42.01-42.01s18.84-42.01,42.01-42.01s42.01,18.85,42.01,42.01S279.16,346.76,256,346.76z M379.95,453.15
	v-9.04c0-6.12,4.37-11.39,10.39-12.51l8.03-1.5c6.33,5.51,14.59,8.86,23.62,8.86c9.03,0,17.29-3.35,23.62-8.86l8.03,1.5
	c6.02,1.12,10.39,6.38,10.39,12.51v9.04c-11.71,8.83-26.28,14.07-42.04,14.07C406.22,467.22,391.66,461.98,379.95,453.15z
	 M438.01,402.95c0,8.84-7.19,16.02-16.02,16.02c-8.83,0-16.02-7.19-16.02-16.02v-10.41c0-8.84,7.19-16.02,16.02-16.02
	c8.84,0,16.02,7.19,16.02,16.02V402.95z M482.1,433.05c-3.84-10.68-13.11-18.93-24.79-21.11l-0.41-0.08
	c0.73-2.85,1.12-5.84,1.12-8.92v-10.41c0-19.86-16.16-36.02-36.02-36.02c-19.86,0-36.02,16.16-36.02,36.02v10.41
	c0,3.08,0.39,6.07,1.12,8.92l-0.41,0.08c-11.69,2.18-20.95,10.42-24.8,21.11c-6.28-10.49-9.9-22.75-9.9-35.84
	c0-38.61,31.41-70.02,70.02-70.02S492,358.6,492,397.2C492,410.3,488.38,422.55,482.1,433.05z"/>
<path d="M256,294.75c-2.63,0-5.21,1.06-7.07,2.92c-1.86,1.87-2.93,4.44-2.93,7.08c0,2.63,1.07,5.21,2.93,7.07s4.44,2.93,7.07,2.93
	s5.21-1.07,7.07-2.93s2.93-4.44,2.93-7.07c0-2.64-1.07-5.21-2.93-7.08C261.21,295.81,258.63,294.75,256,294.75z"/>
<path d="M256,44.01c5.52,0,10-4.48,10-10v-0.02c0-5.52-4.48-9.99-10-9.99s-10,4.49-10,10.01C246,39.53,250.48,44.01,256,44.01z"/>
</svg>
