<?xml version="1.0" encoding="utf-8"?>
<!-- Generator: Adobe Illustrator 23.1.1, SVG Export Plug-In . SVG Version: 6.00 Build 0)  -->
<svg version="1.1" id="Слой_1" xmlns="http://www.w3.org/2000/svg" xmlns:xlink="http://www.w3.org/1999/xlink" x="0px" y="0px"
	 width="190px" height="75px" viewBox="0 0 190 75" style="enable-background:new 0 0 190 75;" xml:space="preserve">
<style type="text/css">
	.st0{fill:#62AAFF;}
</style>
<g>
	<g>
		<path class="st0" d="M68.16,44.76c1.93,0.79,4.58,1.26,6.4,1.26c1.26,0,2.6-0.6,2.6-1.99c0-1.44-2.04-2.12-3.19-2.44
			c-3.19-0.87-5.96-1.9-5.96-5.51c0-4.5,3.31-6.49,7.43-6.49c2.07,0,4.16,0,5.68,0.8v3.74c-1.01-0.61-3.28-0.63-4.59-0.63
			c-1.32,0-3.4,0.05-3.4,1.64c0,1.53,2.06,1.91,3.15,2.26l1.36,0.39c2.53,0.71,4.82,2.59,4.82,5.51c0,1.96-0.63,3.67-2.26,5
			c-1.61,1.3-3.51,1.67-5.58,1.67c-2.6,0-4.66-0.21-6.46-1.13v-4.1H68.16z"/>
		<path class="st0" d="M68.26,36.09c0,3.42,2.63,4.4,5.78,5.26c0.83,0.23,3.37,0.92,3.37,2.69c0,1.55-1.44,2.24-2.85,2.24
			c-1.86,0-4.32-0.49-6.15-1.19c0,0.54,0,3.29,0,3.59c1.77,0.86,3.75,1.05,6.21,1.05c2.38,0,4.05-0.49,5.42-1.61
			c1.46-1.19,2.17-2.76,2.17-4.81c0-2.92-2.4-4.64-4.64-5.26l-1.79-0.52c-1.17-0.33-2.91-0.83-2.91-2.38c0-1.9,2.47-1.9,3.66-1.9
			c1.15,0,3.16,0.02,4.34,0.52c0-0.55,0-2.88,0-3.19c-1.47-0.71-3.47-0.74-5.43-0.74C70.94,29.85,68.26,32.19,68.26,36.09z"/>
		<path class="st0" d="M54.52,39.88c0,3.03,2.38,6.15,6.15,6.15c1.82,0,3.8-0.26,5.4-0.97v4.05c-1.21,0.8-4.04,0.98-5.91,0.98
			c-3.04,0-6.19-1.18-8.02-2.97c-1.95-1.91-3.01-4.38-3.01-7.05c0-2.66,0.86-5.26,2.81-7.18c2-1.96,4.89-3.15,7.76-3.15
			c1.71,0,4.88,0.31,6.1,1.1v3.86c-1.59-0.71-3.32-1.04-5.14-1.04C56.74,33.67,54.52,36.69,54.52,39.88L54.52,39.88z"/>
		<path class="st0" d="M52.11,33.07c-2.26,2.22-2.74,5.03-2.74,6.99c0,2.61,1.01,4.99,2.92,6.87c1.79,1.77,4.87,2.89,7.85,2.89
			c0.99,0,4.27-0.07,5.65-0.9c0-0.28,0-3.02,0-3.56c-1.77,0.7-3.74,0.9-5.14,0.9c-3.95,0-6.4-3.32-6.4-6.4c0-3.21,2.2-6.48,6.4-6.48
			c1.77,0,3.4,0.34,4.88,0.96c0-0.55,0-3.09,0-3.36c-1.18-0.7-4.08-1.02-5.85-1.02C56.92,29.99,54.08,31.15,52.11,33.07z"/>
		<path class="st0" d="M84.39,44.76c1.93,0.79,4.56,1.26,6.4,1.26c1.25,0,2.6-0.6,2.6-1.99c0-1.44-2.04-2.12-3.19-2.44
			c-3.19-0.87-5.96-1.9-5.96-5.51c0-4.5,3.3-6.49,7.43-6.49c2.07,0,4.16,0,5.68,0.8v3.74c-1.01-0.61-3.28-0.63-4.6-0.63
			c-1.34,0-3.4,0.05-3.4,1.64c0,1.53,2.05,1.91,3.15,2.26l1.36,0.39c2.51,0.71,4.82,2.59,4.82,5.51c0,1.96-0.63,3.67-2.27,5
			c-1.61,1.3-3.51,1.67-5.58,1.67c-2.6,0-4.66-0.21-6.45-1.13V44.76L84.39,44.76z"/>
		<path class="st0" d="M84.47,36.09c0,3.42,2.61,4.4,5.78,5.26c0.83,0.23,3.37,0.92,3.37,2.69c0,1.53-1.47,2.24-2.85,2.24
			c-1.86,0-4.32-0.49-6.15-1.19c0,0.54,0,3.29,0,3.59c1.77,0.86,3.75,1.05,6.21,1.05c2.38,0,4.05-0.49,5.42-1.61
			c1.46-1.19,2.17-2.76,2.17-4.81c0-2.92-2.39-4.64-4.64-5.26l-1.8-0.52c-1.17-0.33-2.91-0.83-2.91-2.38c0-1.9,2.47-1.9,3.66-1.9
			c1.15,0,3.15,0.02,4.34,0.52c0-0.55,0-2.88,0-3.19c-1.47-0.71-3.47-0.74-5.43-0.74C87.16,29.85,84.47,32.19,84.47,36.09z"/>
		<polygon class="st0" points="121.79,30.24 128.03,30.24 134.91,42.31 134.96,42.31 134.96,30.24 139.86,30.24 139.86,49.38 
			133.62,49.38 126.73,37.35 126.68,37.35 126.68,49.38 121.79,49.38 		"/>
		<path class="st0" d="M135.22,30.5c0,0.49,0,12.77,0,12.77l-0.53-0.83c0,0-6.67-11.69-6.82-11.95c-0.27,0-5.39,0-5.84,0
			c0,0.49,0,18.14,0,18.63c0.43,0,3.96,0,4.39,0c0-0.49,0-12.72,0-12.72l0.53,0.82c0,0,6.67,11.65,6.82,11.9c0.27,0,5.38,0,5.84,0
			c0-0.49,0-18.14,0-18.63C139.17,30.5,135.65,30.5,135.22,30.5z"/>
		<polygon class="st0" points="46.3,49.38 41.11,49.38 41.11,30.24 46.3,30.24 		"/>
		<path class="st0" d="M41.36,30.5c0,0.49,0,18.14,0,18.63c0.43,0,4.26,0,4.69,0c0-0.49,0-18.14,0-18.63
			C45.62,30.5,41.8,30.5,41.36,30.5z"/>
		<polygon class="st0" points="8.42,34.45 8.42,37.65 17.69,37.65 17.69,41.87 8.42,41.87 8.42,45.17 18.01,45.17 18.01,49.38 
			3.22,49.38 3.22,30.24 18.01,30.24 18.01,34.45 		"/>
		<path class="st0" d="M3.48,30.5c0,0.49,0,18.14,0,18.63c0.48,0,13.8,0,14.28,0c0-0.42,0-3.29,0-3.7c-0.48,0-9.59,0-9.59,0v-3.8
			c0,0,8.8,0,9.27,0c0-0.42,0-3.29,0-3.72c-0.48,0-9.27,0-9.27,0v-3.7c0,0,9.11,0,9.59,0c0-0.42,0-3.29,0-3.7
			C17.28,30.5,3.96,30.5,3.48,30.5z"/>
		<path class="st0" d="M35.61,41.84c0.04,0.1,2.88,7.54,2.88,7.54h-5.56c0,0-1.24-4.27-1.9-5.81c-0.56-1.02-1.18-1.55-1.93-1.55
			h-1.9v7.36h-5.2V30.25h8.66c4.62,0,6.96,1.13,6.96,5.23c0,2.6-2.63,4.28-3.51,4.44C34.63,40.4,35.16,40.75,35.61,41.84
			L35.61,41.84z M27.11,38.27h2.39c1.31,0,2.6-0.27,2.6-2.11c0-1.85-1.28-2.12-2.6-2.12h-2.39V38.27L27.11,38.27z"/>
		<path class="st0" d="M22.26,30.5c0,0.49,0,18.14,0,18.63c0.43,0,4.26,0,4.69,0c0-0.47,0-7.36,0-7.36h2.16
			c0.83,0,1.52,0.53,2.15,1.67c0.01,0.02,1.57,4.81,1.86,5.69c0.32,0,4.43,0,5.02,0c-0.13-0.32-0.32-0.81-0.67-1.73l-2.09-5.46
			c-0.37-0.9-0.8-1.26-1.24-1.67l-0.59-0.53l0.52-0.09c0.77-0.13,3.3-1.73,3.31-4.2l0,0c0-1.61-0.37-2.76-1.14-3.52
			c-0.99-0.99-2.71-1.44-5.56-1.44C30.66,30.5,22.74,30.5,22.26,30.5z M26.86,38.27v-4.49h2.65c1.32,0,2.85,0.27,2.85,2.38
			c0,2.1-1.52,2.37-2.85,2.37h-2.65V38.27z"/>
		<path class="st0" d="M119.46,39.45c0,6.32-4.02,10.77-9.79,10.77c-5.77,0-9.86-4.45-9.86-10.77c0-5.9,4.7-10.05,9.86-10.05
			C114.84,29.41,119.46,33.54,119.46,39.45L119.46,39.45z M105.34,39.45c0,3.8,1.24,6.57,4.32,6.57c3.08,0,4.32-2.77,4.32-6.57
			c0-3.03-1.24-5.81-4.32-5.81S105.34,36.42,105.34,39.45L105.34,39.45z"/>
		<path class="st0" d="M100.06,39.45c0,6.19,3.95,10.51,9.6,10.51c5.62,0,9.53-4.33,9.53-10.51c0-5.5-4.18-9.8-9.53-9.8
			C104.95,29.65,100.06,33.32,100.06,39.45z M105.08,39.45c0-2.93,1.2-6.06,4.58-6.06s4.58,3.14,4.58,6.06
			c0,4.4-1.63,6.82-4.58,6.82C106.71,46.27,105.08,43.86,105.08,39.45z"/>
		<path class="st0" d="M184.85,25.74c1.89-0.69,2.85-2.75,2.13-4.59c-0.7-1.85-2.8-2.78-4.69-2.1l-20.46,7.49
			c-1.88,0.69-2.83,2.75-2.13,4.6c0.7,1.85,2.8,2.78,4.69,2.09L184.85,25.74L184.85,25.74z"/>
		<path class="st0" d="M182.4,19.3L182.4,19.3l-20.46,7.49c-0.86,0.32-1.53,0.93-1.9,1.75c-0.37,0.8-0.39,1.69-0.07,2.51
			c0.65,1.72,2.6,2.59,4.37,1.94l20.46-7.49c0.86-0.31,1.53-0.93,1.9-1.75c0.37-0.8,0.39-1.69,0.09-2.51
			C186.1,19.52,184.14,18.65,182.4,19.3z"/>
		<path class="st0" d="M184.85,36.81c1.89-0.69,2.85-2.75,2.13-4.59c-0.7-1.85-2.8-2.78-4.69-2.1l-20.46,7.51
			c-1.88,0.69-2.83,2.75-2.13,4.6c0.7,1.84,2.8,2.78,4.69,2.1L184.85,36.81L184.85,36.81z"/>
		<path class="st0" d="M182.4,30.37L182.4,30.37l-20.46,7.49c-0.86,0.32-1.53,0.94-1.9,1.75c-0.37,0.8-0.39,1.69-0.07,2.51
			c0.65,1.72,2.61,2.59,4.37,1.95l20.46-7.49c0.86-0.32,1.53-0.94,1.9-1.77c0.37-0.8,0.39-1.68,0.09-2.5
			C186.1,30.61,184.14,29.74,182.4,30.37z"/>
		<path class="st0" d="M184.85,47.9c1.89-0.7,2.85-2.75,2.13-4.6c-0.7-1.84-2.8-2.78-4.69-2.09l-20.46,7.49
			c-1.88,0.69-2.83,2.75-2.13,4.6c0.7,1.84,2.8,2.78,4.69,2.1L184.85,47.9L184.85,47.9z"/>
		<path class="st0" d="M182.4,41.45l-20.46,7.49c-0.86,0.31-1.53,0.93-1.9,1.75c-0.37,0.8-0.39,1.69-0.09,2.51
			c0.65,1.72,2.61,2.59,4.37,1.94l20.46-7.49c0.86-0.32,1.53-0.94,1.9-1.75c0.37-0.8,0.39-1.69,0.09-2.51
			C186.1,41.68,184.14,40.8,182.4,41.45z"/>
	</g>
</g>
</svg>
