<?xml version="1.0" encoding="utf-8"?>
<!-- Generator: Adobe Illustrator 23.1.1, SVG Export Plug-In . SVG Version: 6.00 Build 0)  -->
<svg version="1.1" id="Слой_1" xmlns="http://www.w3.org/2000/svg" xmlns:xlink="http://www.w3.org/1999/xlink" x="0px" y="0px"
	 width="190px" height="75px" viewBox="0 0 190 75" style="enable-background:new 0 0 190 75;" xml:space="preserve">
<style type="text/css">
	.st0{fill:#62AAFF;}
</style>
<g>
	<path class="st0" d="M82.24,32.6L82.24,32.6l-1.2,4.24L82.24,32.6L82.24,32.6z M88.41,41.82h-1.32H88.41L88.41,41.82z M88.07,48.16
		L88.07,48.16l-7.9,0.03L88.07,48.16z M89.71,41.82l-1.32-0.01L89.71,41.82z M88.75,47.61l1.38-5.25L88.75,47.61L88.75,47.61z
		 M117.86,23.44l-2.57,12.06L117.86,23.44z M111.27,23.44l-1.95,9L111.27,23.44z"/>
	<path class="st0" d="M117.42,22.89h-5.49c-0.32,0.01-0.59,0.24-0.67,0.54l-3.89,18.02c-0.08,0.31-0.35,0.53-0.67,0.54h-3.88
		c-3.84,0-3.39-2.66-2.61-6.28l0.02-0.11l0.47-2.48l0.2-1.02l1.77-8.65c0.06-0.3-0.14-0.54-0.44-0.54h-5.63
		c-0.31,0-0.6,0.25-0.66,0.54l-2.53,12.03c-1.39,6.37-1.02,12.44,6.55,12.62h0.21h11.9c0.31,0,0.6-0.25,0.66-0.54l5.13-24.13
		C117.92,23.14,117.72,22.89,117.42,22.89L117.42,22.89z M139.3,42.05c0.24-0.01,0.44,0.16,0.46,0.41c0,0.05,0,0.09-0.01,0.13
		l-0.53,2.61 M138.67,47.8l0.53-2.61L138.67,47.8L138.67,47.8z M138.01,48.35L127.9,48.4L138.01,48.35L138.01,48.35z"/>
	<path class="st0" d="M124.63,38.7c0-0.29,0.32-0.78,0.62-0.78l-0.68-0.01C124.25,41.01,124.63,38.7,124.63,38.7L124.63,38.7z
		 M128.4,48.39h-0.1H128.4z M139.3,42.05c0.24-0.01,0.44,0.16,0.46,0.41c0,0.05,0,0.09-0.01,0.13l-0.62,3.02 M131,48.39h-0.02H131z
		 M129.65,48.39h-0.08H129.65z M129.24,48.39h-0.13H129.24z M128.83,48.39h-0.11H128.83z M129.58,48.39h-0.33H129.58z"/>
	<path class="st0" d="M130.98,48.39h-1.32H130.98z M138.01,48.35l-7.02,0.04L138.01,48.35z M138.66,47.8l0.45-2.18L138.66,47.8
		L138.66,47.8z M129.11,48.39h-0.29H129.11z M128.29,48.39h-0.39H128.29z M128.71,48.39h-0.31H128.71z M48.48,38.76l0.85-3.78
		l-0.97,4.31l-0.93,4.39l0.82-3.84L48.48,38.76L48.48,38.76z M58.68,22.82h-6.02c-0.32,0.01-0.59,0.24-0.67,0.54l-1.14,5.04
		c-0.06,0.22,0.06,0.46,0.29,0.52c0.05,0.01,0.09,0.02,0.14,0.02h6.07c0.32-0.01,0.59-0.24,0.67-0.54l1.1-5.04
		C59.18,23.06,58.98,22.82,58.68,22.82L58.68,22.82z M57.37,31.21l-1.77,8.17L57.37,31.21z M39.87,58.29l4.97,0.04
		C43.37,58.33,40.95,58.3,39.87,58.29L39.87,58.29z M50.19,31.21l-0.85,3.78L50.19,31.21z"/>
	<path class="st0" d="M56.93,30.67h-6.07c-0.32,0.01-0.59,0.24-0.67,0.54l-1.71,7.55l-0.24,1.08l-1.64,7.71
		c-0.08,0.36-0.17,0.72-0.3,1.06c0,0-1.12,3.37-3.04,3.33l-1.89-0.03c-0.32,0.01-0.59,0.22-0.68,0.53l-1.26,5.29
		c-0.07,0.22,0.06,0.46,0.28,0.53c0.05,0.01,0.09,0.02,0.14,0.02l4.97,0.04c4.76,0,7.28-2.64,8.88-10.23l3.66-16.88
		c0.06-0.3-0.13-0.54-0.44-0.54L56.93,30.67z M143.16,48.08c-0.31,0-0.5-0.25-0.44-0.54l4.57-21.39"/>
	<path class="st0" d="M149.51,47.54l1.85-9.13L149.51,47.54z M142.79,47.83c-0.04-0.15-0.01-0.51,0.05-0.81L145,36.86l-2.28,10.69
		c-0.06,0.3,0.13,0.54,0.44,0.54h0.56c-0.31,0-0.89-0.12-0.93-0.29V47.83z"/>
	<path class="st0" d="M149.15,47.96c-0.16,0.07-0.55,0.12-0.86,0.12h0.56c0.31,0,0.6-0.25,0.66-0.54l0.11-0.54
		C149.57,47.3,149.32,47.9,149.15,47.96L149.15,47.96z M150.44,42.98l0.82-4.03L150.44,42.98z"/>
	<path class="st0" d="M168.45,27.59l0.26,1.04c0.07,0.3-0.12,0.54-0.43,0.54 M149.62,46.99l0.82-4.03L149.62,46.99z M168.21,26.51
		l0.25,1.06L168.21,26.51z M151.25,38.94l0.22-1.07l0.87-4.08l-0.98,4.62L151.25,38.94L151.25,38.94z M147.37,25.81l-2.35,11.05
		l2.36-11.05H147.37z"/>
	<path class="st0" d="M168.71,28.63l-0.26-1.04l-0.38-1.59c-0.49-1.91-1.94-3.02-5.09-3.02l-9.4-0.01h-5.07
		c-0.31,0-0.6,0.25-0.66,0.54l-0.22,1.06l-0.34,1.6l-4.45,20.85c-0.06,0.3-0.08,0.66-0.05,0.81c0.03,0.14,0.62,0.29,0.93,0.29h4.58
		c0.31,0,0.69-0.06,0.86-0.12c0.16-0.06,0.41-0.65,0.47-0.96l1.74-8.58l1.86-8.7c0.08-0.31,0.35-0.52,0.66-0.54l14.39-0.01
		c0.31,0,0.5-0.25,0.43-0.54V28.63z M187.23,19.23h-1.1h-4.6c-0.34,0.02-0.65,0.18-0.87,0.46l-10.19,14.92
		c-0.17,0.26-0.37,0.21-0.44-0.08l-0.75-3.29c-0.08-0.31-0.36-0.53-0.67-0.54h-6.55c-0.21-0.02-0.41,0.14-0.43,0.36
		c0,0.06,0,0.11,0.02,0.17l2.93,10.28c0.08,0.35,0.09,0.72,0.01,1.07l-1.28,4.98c-0.07,0.3,0.11,0.54,0.42,0.54h6.47
		c0.31,0,0.61-0.25,0.69-0.54l1.28-4.98c0.1-0.35,0.27-0.68,0.47-0.98l16.53-21.95c0.18-0.25,0.09-0.44-0.22-0.44l-1.74,0.01
		L187.23,19.23z M135.21,32.1c-0.04,0.33-0.35,0.56-0.65,0.56h-8.3c-0.29,0-0.43-0.19-0.39-0.44c0-0.01,0-0.01,0.01-0.02
		c0-0.01,0-0.02,0-0.02l0.04-0.14c0.8-2.11,2.41-3.49,5.45-3.49C134.76,28.56,135.42,30.23,135.21,32.1L135.21,32.1z M132.77,22.53
		c-10.66,0-13.18,6.47-14.6,13c-1.41,6.65-1.3,12.88,9.73,12.88h0.39h0.1h0.84h0.41h1.35l7.02-0.04c0.32-0.02,0.58-0.24,0.66-0.54
		l1.06-5.21c0.06-0.24-0.07-0.47-0.31-0.53c-0.04-0.01-0.09-0.02-0.13-0.01h-9.91c-3.94,0-5.11-1.05-4.68-4.13h15.85
		c0.26-0.01,0.49-0.17,0.58-0.41c0.02-0.04,0.03-0.09,0.04-0.14C143.53,28.5,142.84,22.53,132.77,22.53L132.77,22.53z M82.4,32.06
		l-0.15,0.53l-1.2,4.24l-1.19,4.25c-0.1,0.31-0.38,0.52-0.71,0.53h-6.34c-4.8,0-5.98-3.76-4.8-9.3c1.16-5.67,3.46-9.2,8.2-9.54
		c6.47-0.49,7.76,4.06,6.19,9.3L82.4,32.06z M86.74,41.29c0,0,2.98-7.26,3.67-11.44c0.93-5.6-1.88-13.72-12.72-13.72
		c-10.78,0-15.45,7.77-17.25,16.21c-1.79,8.5,0.56,15.95,11.27,15.89l16.36-0.06c0.32-0.02,0.6-0.24,0.69-0.54l1.38-5.25
		c0.08-0.3-0.11-0.54-0.41-0.54l-2.64-0.02c-0.26,0-0.41-0.17-0.38-0.39C86.72,41.37,86.73,41.33,86.74,41.29L86.74,41.29z"/>
	<path class="st0" d="M140.11,36.44c0,0.2-0.16,0.37-0.37,0.37s-0.37-0.16-0.37-0.37s0.16-0.37,0.37-0.37S140.11,36.24,140.11,36.44
		z"/>
</g>
<path class="st0" d="M4.41,27.01c-2.97,4.28-2.61,9.84-0.33,14.39l0.29,0.53c0.02,0.04,0.04,0.08,0.06,0.11
	c0.04,0.07,0.08,0.14,0.12,0.21l0.21,0.37l0.12,0.2l0.36,0.56c0.12,0.17,0.25,0.36,0.37,0.52l0.07,0.09
	c0.11,0.15,0.21,0.3,0.34,0.44l0.12,0.16l0.31,0.38l0.11,0.14c0.14,0.16,0.29,0.33,0.43,0.49c0.01,0.02,0.02,0.02,0.02,0.03
	c0.14,0.15,0.29,0.31,0.44,0.46l0.14,0.14l0.35,0.34l0.14,0.13c0.15,0.14,0.32,0.29,0.48,0.43c0.03,0.03,0.06,0.05,0.09,0.08
	l0.43,0.38l0.18,0.14l0.36,0.29l0.19,0.14l0.4,0.29l0.14,0.1c0.01,0.01,0.03,0.02,0.04,0.03c0.13,0.09,0.27,0.17,0.4,0.26l0.17,0.11
	c0.2,0.13,0.41,0.26,0.61,0.38l0.17,0.09l0.46,0.26c0.09,0.04,0.17,0.09,0.26,0.13l0.33,0.17l0.07,0.04l0.13,0.06l0.52,0.25
	l0.11,0.05c0.2,0.09,0.41,0.17,0.61,0.26l0.15,0.06l0.57,0.21l0.07,0.02c0.21,0.07,0.43,0.14,0.64,0.21l0.15,0.05
	c0.21,0.06,0.44,0.14,0.66,0.18c14.4,2.63,18.58-8.66,18.58-8.66c-3.52,4.58-9.76,5.78-15.66,4.44c-0.22-0.05-0.44-0.12-0.66-0.18
	l-0.16-0.05c-0.21-0.06-0.43-0.13-0.63-0.2l-0.09-0.03c-0.18-0.06-0.38-0.13-0.56-0.2l-0.15-0.06c-0.2-0.08-0.41-0.16-0.6-0.26
	l-0.12-0.05l-0.51-0.24l-0.14-0.07l-0.4-0.2l-0.27-0.13c-0.16-0.09-0.32-0.17-0.47-0.27l-0.16-0.09c-0.2-0.12-0.41-0.25-0.61-0.38
	c-0.06-0.03-0.11-0.07-0.16-0.11l-0.44-0.29l-0.14-0.1l-0.41-0.3l-0.55-0.42l-0.16-0.13l-0.47-0.39c-0.02-0.01-0.03-0.03-0.05-0.04
	c-0.16-0.14-0.33-0.3-0.49-0.45l-0.13-0.13l-0.35-0.35l-0.13-0.13l-0.43-0.46c-0.01-0.01-0.01-0.01-0.02-0.02
	c-0.15-0.16-0.3-0.33-0.44-0.5l-0.11-0.13l-0.32-0.39l-0.11-0.14L8.59,39.8c-3.28-4.48-4.46-10.64-1.84-15.71 M13.67,23.43
	c-2.16,3.1-2.03,7.25-0.36,10.53c0.29,0.55,0.6,1.08,0.95,1.59c0.33,0.46,0.68,1.01,1.1,1.38c0.15,0.17,0.32,0.34,0.48,0.5
	c0.04,0.04,0.08,0.08,0.12,0.12l0.49,0.47c0.01,0.01,0.01,0.01,0.02,0.02c0.19,0.17,0.38,0.33,0.58,0.48l0.13,0.09
	c0.19,0.15,0.4,0.3,0.6,0.44c0.01,0,0.01,0.01,0.02,0.01c0.09,0.06,0.18,0.12,0.28,0.18c0.04,0.03,0.08,0.06,0.13,0.08
	c0.14,0.09,0.3,0.18,0.45,0.28l0.06,0.04l0.4,0.22c0.05,0.03,0.09,0.05,0.14,0.07l0.28,0.14c0.01,0.01,0.03,0.01,0.04,0.02
	c0.19,0.09,0.38,0.18,0.57,0.27c0.04,0.02,0.09,0.03,0.12,0.05l0.47,0.19l0.2,0.07c0.14,0.05,0.29,0.09,0.43,0.15l0.18,0.06
	c0.2,0.06,0.41,0.14,0.63,0.18c11.12,1.84,13.68-6.71,13.68-6.71c-2.31,3.33-6.8,4.93-11.58,3.68c-0.21-0.05-0.42-0.11-0.63-0.18
	c-0.06-0.02-0.12-0.04-0.19-0.06c-0.14-0.05-0.3-0.1-0.44-0.15l-0.19-0.07c-0.16-0.06-0.32-0.12-0.47-0.19l-0.14-0.06
	c-0.19-0.08-0.39-0.17-0.58-0.27c-0.1-0.05-0.19-0.1-0.29-0.15l-0.17-0.08c-0.12-0.07-0.25-0.13-0.37-0.2l-0.09-0.05
	c-0.15-0.09-0.3-0.18-0.45-0.29c-0.04-0.03-0.09-0.06-0.13-0.09l-0.28-0.18c-0.2-0.14-0.4-0.29-0.6-0.44l-0.13-0.1
	c-2.09-1.66-3.75-3.91-4.54-6.47c-0.83-2.66-0.65-5.63,0.79-8.05 M21.43,20.72c-1.27,1.88-1.39,4.19-0.51,6.25
	c0.94,2.19,2.83,3.9,5.05,4.72l0.28,0.09l0.12,0.04l0.4,0.11c6.14,1.19,7.8-3.15,8.26-3.79c-1.46,2.09-3.91,2.61-6.92,1.87
	c-0.25-0.06-0.49-0.13-0.73-0.22c-0.3-0.1-0.58-0.22-0.87-0.36c-0.53-0.26-1.04-0.57-1.51-0.92c-2.69-2.04-4.36-5.94-2.61-9.1"/>
</svg>
