<?xml version="1.0" encoding="utf-8"?>
<!-- Generator: Adobe Illustrator 23.1.1, SVG Export Plug-In . SVG Version: 6.00 Build 0)  -->
<svg version="1.1" id="Слой_1" xmlns="http://www.w3.org/2000/svg" xmlns:xlink="http://www.w3.org/1999/xlink" x="0px" y="0px"
	 width="130px" height="75px" viewBox="0 0 130 75" style="enable-background:new 0 0 130 75;" xml:space="preserve">
<style type="text/css">
	.st0{fill:#FFFFFF;}
	.st1{fill:#62AAFF;}
</style>
<g>
	<path class="st0" d="M124.32,49.88h-1.83h-3.73v3.73v7.09H91.14h-3.73v3.73v9.24H69.61v-6.37v-3.73h-3.73H39.49v-3.51v-3.73h-3.73
		h-4.62v-2.74v-3.73h-3.73H5.34V25.84h1.77h3.73v-3.7v-6.28h16.58h3.73v-3.74V4.72H51.8v16.04h0.34h3.35h0.34V9.51h9.99h3.73V5.78
		v-4.7h17.82v8.36v3.71h3.73h27.66v8.99v3.73h3.73h1.83L124.32,49.88L124.32,49.88z"/>
	<g>
		<rect x="10.84" y="15.85" class="st1" width="20.31" height="10.02"/>
		<rect x="55.86" y="9.51" class="st1" width="13.72" height="11.24"/>
		<rect x="31.11" y="49.88" class="st1" width="8.36" height="6.47"/>
		<polygon class="st1" points="39.49,25.87 39.49,20.74 51.77,20.74 51.77,4.7 31.11,4.7 31.11,15.85 31.11,25.87 		"/>
		<polygon class="st1" points="39.49,49.88 39.49,56.35 39.49,63.57 69.58,63.57 69.58,49.88 		"/>
		<polygon class="st1" points="39.49,25.87 69.58,25.87 69.58,20.74 55.86,20.74 51.77,20.74 39.49,20.74 		"/>
		<rect x="87.41" y="13.16" class="st1" width="31.37" height="12.68"/>
		<rect x="87.41" y="49.88" class="st1" width="31.37" height="10.82"/>
		<polygon class="st1" points="69.58,25.87 87.41,25.87 87.41,13.16 87.41,1.08 69.58,1.08 69.58,9.51 69.58,20.74 		"/>
		<polygon class="st1" points="69.58,49.88 69.58,63.57 69.58,73.67 87.41,73.67 87.41,60.7 87.41,49.88 		"/>
		<path class="st1" d="M87.41,25.87H69.61H39.49h-8.35H10.84h-5.5v24.01h25.81h8.36h30.1h17.81h31.37h5.56V25.87h-5.56H87.41z
			 M30.32,45.02h-1.96V33.04H28.3l-4.92,11.98h-1.3l-4.92-11.98h-0.03v11.98h-1.99V30.46h2.93l4.64,11.02h0.09l4.6-11.02h2.93v14.56
			H30.32z M42.14,40.83h-7.81c0,1.71,1.58,2.83,3.29,2.83c1.14,0,1.96-0.56,2.68-1.47l1.39,1.06c-1.03,1.33-2.46,1.99-4.32,1.99
			c-3.09,0-5.01-2.24-5.01-5.12c0-2.91,2.11-5.12,5.04-5.12c3.43,0,4.76,2.65,4.76,5.14L42.14,40.83L42.14,40.83z M53.63,45.02
			h-1.86h-0.06c0,0-2.08,0-3.4,0c-3.02,0-4.95-1.99-4.95-4.87c0-2.91,1.96-5.12,4.95-5.12c1.39,0,2.74,0.63,3.4,1.64h0.06v-6.22
			h1.86V45.02L53.63,45.02z M57.89,45.02h-1.86v-9.74h1.86V45.02z M57.89,33.7h-1.86v-1.86h1.86V33.7z M68.32,43.25
			c0,0.69,0,1.77,0,1.77h-1.55h-0.11c0,0-1.93,0-3.4,0c-1.8,0-3.38-0.78-3.38-2.68c0-2.51,2.4-3.38,5.36-3.38h1.36v-0.41
			c0-1-0.74-2.08-2.3-2.08c-1.43,0-2.08,0.6-2.77,1.11l-1.11-1.14c1.03-0.99,2.51-1.44,3.87-1.44c2.88,0,4.07,1.55,4.07,3.24
			L68.32,43.25L68.32,43.25L68.32,43.25z M86.03,45.02h-1.99V33.04h-0.03L79.1,45.02h-1.3l-4.93-11.98H72.8v11.98h-1.99V30.46h2.94
			l4.64,11.02h0.09l4.6-11.02h2.94V45.02L86.03,45.02z M95.93,43.25c0,0.69,0,1.77,0,1.77h-1.55h-0.11c0,0-1.93,0-3.43,0
			c-1.8,0-3.38-0.78-3.38-2.68c0-2.51,2.4-3.38,5.36-3.38h1.36v-0.41c0-1-0.74-2.08-2.3-2.08c-1.43,0-2.08,0.6-2.77,1.11l-1.11-1.14
			C89.03,35.46,90.5,35,91.86,35c2.88,0,4.07,1.55,4.07,3.24V43.25L95.93,43.25z M104.07,44.95c-0.44,0.25-1.3,0.33-1.66,0.33
			c-2.87,0-2.91-1.74-2.91-3.32v-5.09h-2.15v-1.63h2.15v-2.72h1.86v2.72h2.65v1.61h-2.62v4.42c0,1.1,0,2.24,1.39,2.24
			c0.44,0,0.96-0.06,1.3-0.3L104.07,44.95L104.07,44.95z M114.52,45.02h-1.86v-5.78c0-1.83-1.06-2.51-2.24-2.51
			c-1.55,0-2.72,0.99-2.72,3.24v5.04h-1.86V30.48h1.86l0.06,4.57c0,0,1.71,0,3.21,0c1.89,0,3.54,1.14,3.54,3.73L114.52,45.02
			L114.52,45.02z"/>
		<g>
			<path class="st1" d="M37.35,36.5c-1.83,0-3.02,1.55-3.02,2.83h5.86C40.13,37.73,39.23,36.5,37.35,36.5z"/>
			<path class="st1" d="M41.29,40.42h-8.03v-1.1c0-1.89,1.66-3.91,4.1-3.91c2.3,0,3.84,1.52,3.88,3.88L41.29,40.42z M35.88,38.27
				h2.94c-0.41-0.69-1.14-0.69-1.47-0.69C36.72,37.6,36.19,37.87,35.88,38.27z"/>
		</g>
		<g>
			<path class="st1" d="M61.71,42.19c0,1.11,0.81,1.58,2.08,1.58c2.08,0,2.77-1.52,2.77-2.83v-0.63h-0.99
				C63.86,40.34,61.71,40.64,61.71,42.19z"/>
			<path class="st1" d="M63.8,44.87c-2.33,0-3.18-1.39-3.18-2.68c0-1.11,0.66-2.96,4.98-2.96h2.08v1.69
				C67.67,42.91,66.47,44.87,63.8,44.87z M65.47,41.41c-1.58,0.03-2.68,0.33-2.68,0.78c0,0.19,0,0.5,1,0.5
				C64.99,42.72,65.36,42.03,65.47,41.41z"/>
		</g>
		<g>
			<path class="st1" d="M48.56,36.76c-1.99,0-3.21,1.43-3.21,3.4c0,1.99,1.22,3.4,3.21,3.4c1.96,0,3.21-1.43,3.21-3.4
				C51.77,38.16,50.55,36.76,48.56,36.76z"/>
			<path class="st1" d="M48.56,44.62c-2.52,0-4.29-1.86-4.29-4.46c0-2.65,1.77-4.48,4.29-4.48c2.52,0,4.29,1.86,4.29,4.48
				C52.87,42.78,51.08,44.62,48.56,44.62z M48.56,37.84c-1.58,0-2.11,1.21-2.11,2.3c0,1.11,0.56,2.3,2.11,2.3
				c1.58,0,2.11-1.21,2.11-2.3C50.67,39.03,50.14,37.84,48.56,37.84z"/>
		</g>
		<g>
			<path class="st1" d="M89.34,42.19c0,1.11,0.81,1.58,2.08,1.58c2.08,0,2.77-1.52,2.77-2.83v-0.63h-0.99
				C91.47,40.34,89.34,40.64,89.34,42.19z"/>
			<path class="st1" d="M91.44,44.87c-2.33,0-3.18-1.39-3.18-2.68c0-1.11,0.66-2.96,4.98-2.96h2.08v1.69
				C95.3,42.91,94.11,44.87,91.44,44.87z M93.1,41.41c-1.58,0.03-2.68,0.33-2.68,0.78c0,0.19,0,0.5,1,0.5
				C92.6,42.72,92.97,42.03,93.1,41.41z"/>
		</g>
		<polygon class="st0" points="22.78,41.48 22.69,41.48 18.07,30.46 15.13,30.46 15.13,45.02 17.11,45.02 17.11,33.04 17.15,33.04 
			22.06,45.02 23.38,45.02 28.31,33.04 28.33,33.04 28.33,45.02 30.32,45.02 30.32,30.46 27.39,30.46 		"/>
		<path class="st0" d="M37.39,35.03c-2.91,0-5.04,2.21-5.04,5.12c0,2.91,1.93,5.12,5.01,5.12c1.88,0,3.29-0.66,4.32-1.99l-1.39-1.06
			c-0.7,0.88-1.55,1.47-2.68,1.47c-1.71,0-3.29-1.14-3.29-2.83h7.81V40.2C42.14,37.65,40.82,35.03,37.39,35.03z M34.33,39.34
			c0-1.3,1.21-2.83,3.02-2.83c1.88,0,2.77,1.22,2.83,2.83H34.33z"/>
		<path class="st0" d="M51.77,36.66h-0.06c-0.66-1-1.99-1.64-3.4-1.64c-2.99,0-4.95,2.21-4.95,5.12c0,2.88,1.93,4.87,4.95,4.87
			c1.3,0,3.4,0,3.4,0h0.06h1.86V30.44h-1.86V36.66L51.77,36.66z M48.56,43.54c-1.99,0-3.21-1.43-3.21-3.4c0-1.99,1.22-3.4,3.21-3.4
			c1.96,0,3.21,1.43,3.21,3.4C51.77,42.11,50.55,43.54,48.56,43.54z"/>
		<rect x="56.05" y="35.28" class="st0" width="1.86" height="9.74"/>
		<path class="st0" d="M64.24,35.03c-1.36,0-2.83,0.47-3.87,1.44l1.11,1.14c0.69-0.52,1.36-1.11,2.77-1.11c1.58,0,2.3,1.06,2.3,2.08
			v0.41h-1.36c-2.96,0-5.36,0.88-5.36,3.38c0,1.88,1.55,2.68,3.38,2.68c1.47,0,3.4,0,3.4,0h0.11h1.55c0,0,0-1.1,0-1.77v-4.98
			C68.32,36.6,67.13,35.03,64.24,35.03z M66.57,40.95c0,1.3-0.7,2.83-2.77,2.83c-1.28,0-2.08-0.47-2.08-1.58
			c0-1.55,2.15-1.88,3.88-1.88h0.99L66.57,40.95L66.57,40.95z"/>
		<path class="st0" d="M91.88,35.03c-1.36,0-2.83,0.47-3.87,1.44l1.11,1.14c0.69-0.52,1.36-1.11,2.77-1.11c1.58,0,2.3,1.06,2.3,2.08
			v0.41h-1.36c-2.96,0-5.36,0.88-5.36,3.38c0,1.88,1.55,2.68,3.38,2.68c1.47,0,3.43,0,3.43,0h0.11h1.55c0,0,0-1.1,0-1.77v-4.98
			C95.93,36.6,94.77,35.03,91.88,35.03z M94.21,40.95c0,1.3-0.7,2.83-2.77,2.83c-1.28,0-2.08-0.47-2.08-1.58
			c0-1.55,2.15-1.88,3.88-1.88h0.99L94.21,40.95L94.21,40.95z"/>
		<polygon class="st0" points="78.49,41.48 78.39,41.48 73.77,30.46 70.83,30.46 70.83,45.02 72.79,45.02 72.79,33.04 72.85,33.04 
			77.77,45.02 79.08,45.02 84.01,33.04 84.05,33.04 84.05,45.02 86.03,45.02 86.03,30.46 83.07,30.46 		"/>
		<path class="st0" d="M101.37,41.3v-4.42h2.65v-1.61h-2.65v-2.72H99.5v2.72h-2.13v1.61h2.15v5.09c0,1.55,0.06,3.32,2.91,3.32
			c0.38,0,1.22-0.09,1.66-0.33v-1.69c-0.38,0.22-0.89,0.3-1.3,0.3C101.37,43.54,101.37,42.38,101.37,41.3z"/>
		<path class="st0" d="M110.98,35.03c-1.49,0-3.21,0-3.21,0l-0.06-4.57h-1.86v14.56h1.86v-5.04c0-2.27,1.17-3.24,2.72-3.24
			c1.17,0,2.24,0.69,2.24,2.51v5.78h1.86v-6.28C114.52,36.16,112.89,35.03,110.98,35.03z"/>
		<rect x="56.05" y="31.85" class="st0" width="1.86" height="1.86"/>
	</g>
</g>
</svg>
