<?xml version="1.0" encoding="utf-8"?>
<!-- Generator: Adobe Illustrator 23.1.1, SVG Export Plug-In . SVG Version: 6.00 Build 0)  -->
<svg version="1.1" id="Слой_1" xmlns="http://www.w3.org/2000/svg" xmlns:xlink="http://www.w3.org/1999/xlink" x="0px" y="0px"
	 width="120px" height="75px" viewBox="0 0 120 75" style="enable-background:new 0 0 120 75;" xml:space="preserve">
<style type="text/css">
	.st0{fill:#62AAFF;}
	.st1{fill:#FFFFFF;}
</style>
<g>
	<path class="st0" d="M50.9,8.84c3.32-3.46,7.95-5.61,13.07-5.61c6.79,0,12.73,3.8,15.89,9.42c2.75-1.23,5.78-1.91,8.98-1.91
		c12.27,0,22.2,10.02,22.2,22.4s-9.94,22.4-22.2,22.4c-1.49,0-2.97-0.15-4.38-0.43c-2.78,4.96-8.09,8.32-14.17,8.32
		c-2.55,0-4.95-0.58-7.1-1.63c-2.81,6.62-9.39,11.28-17.05,11.28c-7.98,0-14.77-5.04-17.38-12.13c-1.14,0.25-2.32,0.37-3.54,0.37
		c-9.5,0-17.18-7.78-17.18-17.37c0-6.43,3.46-12.04,8.59-15.05c-1.06-2.43-1.64-5.12-1.64-7.95c0-11.04,8.96-19.98,20-19.98
		C41.48,0.99,47.24,4.06,50.9,8.84"/>
	<path class="st1" d="M22.95,38.37c-0.06,0.17,0.03,0.2,0.05,0.23c0.2,0.14,0.38,0.25,0.58,0.35c1.05,0.55,2.04,0.72,3.07,0.72
		c2.11,0,3.43-1.12,3.43-2.94v-0.03c0-1.68-1.48-2.27-2.87-2.72l-0.18-0.06c-1.03-0.34-1.94-0.63-1.94-1.32v-0.03
		c0-0.58,0.52-1.03,1.35-1.03c0.91,0,1.98,0.31,2.69,0.69c0,0,0.2,0.14,0.28-0.06c0.05-0.11,0.4-1.06,0.43-1.15
		c0.05-0.11-0.03-0.2-0.11-0.23c-0.8-0.48-1.89-0.81-3.03-0.81h-0.22c-1.94,0-3.29,1.17-3.29,2.84v0.03c0,1.77,1.49,2.34,2.89,2.74
		l0.23,0.06c1.01,0.31,1.89,0.58,1.89,1.29v0.03c0,0.66-0.57,1.14-1.49,1.14c-0.35,0-1.49,0-2.72-0.78
		c-0.15-0.09-0.23-0.15-0.35-0.22c-0.06-0.03-0.22-0.11-0.28,0.09L22.95,38.37L22.95,38.37z"/>
	<path class="st1" d="M53.88,38.37c-0.06,0.17,0.03,0.2,0.05,0.23c0.2,0.14,0.38,0.25,0.58,0.35c1.05,0.55,2.04,0.72,3.07,0.72
		c2.11,0,3.43-1.12,3.43-2.94v-0.03c0-1.68-1.48-2.27-2.87-2.72l-0.18-0.06C56.91,33.59,56,33.3,56,32.61v-0.03
		c0-0.58,0.52-1.03,1.35-1.03c0.91,0,1.98,0.31,2.69,0.69c0,0,0.2,0.14,0.28-0.06c0.05-0.11,0.4-1.06,0.43-1.15
		c0.05-0.11-0.03-0.2-0.11-0.23c-0.8-0.48-1.89-0.81-3.03-0.81H57.4c-1.94,0-3.29,1.17-3.29,2.84v0.03c0,1.77,1.49,2.34,2.89,2.74
		l0.23,0.06c1.01,0.31,1.89,0.58,1.89,1.29v0.03c0,0.66-0.57,1.14-1.49,1.14c-0.35,0-1.49,0-2.72-0.78
		c-0.15-0.09-0.23-0.15-0.35-0.22c-0.03-0.03-0.22-0.09-0.28,0.09L53.88,38.37L53.88,38.37z"/>
	<path class="st1" d="M75,34.82c0,1.03-0.18,1.83-0.57,2.4c-0.37,0.57-0.94,0.83-1.72,0.83c-0.78,0-1.34-0.28-1.71-0.83
		c-0.37-0.57-0.55-1.37-0.55-2.4c0-1.01,0.18-1.83,0.55-2.38c0.37-0.55,0.92-0.83,1.71-0.83c0.78,0,1.35,0.28,1.72,0.83
		C74.8,33.01,75,33.81,75,34.82 M76.75,32.93c-0.17-0.58-0.45-1.11-0.8-1.54c-0.35-0.43-0.81-0.78-1.35-1.03s-1.17-0.38-1.89-0.38
		c-0.72,0-1.35,0.12-1.89,0.38c-0.54,0.26-1,0.6-1.35,1.03c-0.35,0.43-0.63,0.95-0.8,1.54c-0.17,0.58-0.26,1.21-0.26,1.89
		c0,0.68,0.09,1.32,0.26,1.89c0.17,0.58,0.45,1.11,0.8,1.54c0.35,0.43,0.81,0.77,1.35,1.01s1.17,0.37,1.89,0.37
		c0.71,0,1.35-0.12,1.89-0.37c0.54-0.25,1-0.58,1.35-1.01c0.35-0.43,0.63-0.95,0.8-1.54c0.17-0.58,0.26-1.21,0.26-1.89
		S76.94,33.51,76.75,32.93"/>
	<path class="st1" d="M91.23,37.79C91.17,37.62,91,37.68,91,37.68c-0.26,0.09-0.52,0.18-0.81,0.23c-0.29,0.05-0.61,0.06-0.97,0.06
		c-0.86,0-1.54-0.26-2.01-0.75c-0.49-0.51-0.75-1.31-0.75-2.41c0-1,0.25-1.75,0.68-2.32s1.09-0.86,1.95-0.86
		c0.72,0,1.28,0.08,1.86,0.26c0,0,0.14,0.06,0.2-0.12c0.15-0.43,0.26-0.74,0.43-1.2c0.05-0.14-0.06-0.18-0.11-0.2
		c-0.23-0.09-0.77-0.23-1.18-0.29c-0.38-0.06-0.83-0.09-1.32-0.09c-0.74,0-1.4,0.12-1.97,0.38c-0.57,0.25-1.05,0.6-1.41,1.03
		c-0.37,0.43-0.66,0.95-0.86,1.54c-0.18,0.58-0.29,1.23-0.29,1.91c0,1.46,0.4,2.64,1.17,3.5c0.78,0.88,1.95,1.31,3.47,1.31
		c0.91,0,1.83-0.18,2.49-0.45c0,0,0.12-0.06,0.08-0.22L91.23,37.79L91.23,37.79z"/>
	<path class="st1" d="M94.32,33.85c0.08-0.57,0.25-1.05,0.48-1.41c0.37-0.55,0.92-0.86,1.71-0.86c0.78,0,1.31,0.31,1.68,0.86
		c0.25,0.37,0.35,0.86,0.4,1.41H94.32L94.32,33.85z M100.25,32.59c-0.15-0.57-0.52-1.14-0.77-1.4c-0.38-0.42-0.75-0.71-1.14-0.86
		c-0.49-0.22-1.08-0.35-1.71-0.35c-0.74,0-1.41,0.12-1.97,0.38c-0.55,0.26-1.01,0.61-1.37,1.05c-0.37,0.43-0.63,0.95-0.81,1.55
		c-0.17,0.58-0.26,1.23-0.26,1.91c0,0.69,0.09,1.32,0.28,1.91c0.18,0.58,0.48,1.09,0.86,1.52c0.38,0.43,0.89,0.77,1.51,1
		c0.6,0.23,1.32,0.35,2.17,0.35c1.72,0,2.63-0.38,3.01-0.6c0.06-0.03,0.12-0.11,0.05-0.29l-0.38-1.09
		c-0.06-0.17-0.23-0.11-0.23-0.11C99.06,37.71,98.46,38,97.04,38c-0.92,0-1.61-0.28-2.04-0.71c-0.45-0.43-0.66-1.08-0.69-1.98h5.96
		c0,0,0.15,0,0.17-0.15C100.44,35.1,100.64,33.94,100.25,32.59L100.25,32.59z"/>
	<path class="st1" d="M46.52,33.85c0.09-0.57,0.25-1.05,0.48-1.41c0.37-0.55,0.92-0.86,1.71-0.86s1.31,0.31,1.68,0.86
		c0.25,0.37,0.35,0.86,0.4,1.41H46.52L46.52,33.85z M52.45,32.59c-0.15-0.57-0.52-1.14-0.77-1.4c-0.38-0.42-0.75-0.71-1.14-0.86
		c-0.49-0.22-1.08-0.35-1.71-0.35c-0.74,0-1.41,0.12-1.97,0.38c-0.55,0.26-1.01,0.61-1.37,1.05c-0.37,0.43-0.63,0.95-0.81,1.55
		c-0.17,0.58-0.26,1.23-0.26,1.91c0,0.69,0.09,1.32,0.28,1.91c0.18,0.58,0.48,1.09,0.86,1.52c0.38,0.43,0.89,0.77,1.51,1
		c0.6,0.23,1.32,0.35,2.17,0.35c1.72,0,2.63-0.38,3.01-0.6c0.06-0.03,0.12-0.11,0.05-0.29l-0.38-1.09
		c-0.06-0.17-0.23-0.11-0.23-0.11C51.25,37.71,50.65,38,49.24,38c-0.92,0-1.61-0.28-2.04-0.71c-0.45-0.43-0.66-1.08-0.69-1.98h5.96
		c0,0,0.15,0,0.17-0.15C52.64,35.1,52.84,33.94,52.45,32.59L52.45,32.59z"/>
	<path class="st1" d="M33.62,37.76c-0.23-0.18-0.26-0.23-0.34-0.35c-0.12-0.18-0.18-0.45-0.18-0.77c0-0.52,0.17-0.91,0.54-1.15
		c0,0,0.51-0.45,1.74-0.43c0.86,0.02,1.61,0.14,1.61,0.14v2.72l0,0c0,0-0.75,0.17-1.61,0.22C34.14,38.17,33.61,37.76,33.62,37.76
		 M35.99,33.56c-0.25-0.02-0.55-0.03-0.94-0.03c-0.51,0-1,0.06-1.48,0.18c-0.46,0.12-0.89,0.32-1.25,0.58
		c-0.37,0.26-0.66,0.58-0.86,0.98c-0.22,0.4-0.32,0.86-0.32,1.38c0,0.52,0.09,0.98,0.28,1.37c0.18,0.38,0.45,0.69,0.78,0.94
		c0.34,0.25,0.74,0.42,1.21,0.52c0.46,0.11,1,0.15,1.58,0.15c0.61,0,1.23-0.05,1.81-0.15c0.58-0.09,1.31-0.25,1.51-0.29
		s0.42-0.11,0.42-0.11c0.15-0.03,0.14-0.2,0.14-0.2v-5.46c0-1.2-0.32-2.09-0.95-2.63c-0.63-0.55-1.55-0.83-2.74-0.83
		c-0.45,0-1.17,0.06-1.6,0.15c0,0-1.31,0.25-1.84,0.68c0,0-0.12,0.08-0.05,0.23l0.42,1.14c0.05,0.15,0.2,0.09,0.2,0.09
		s0.05-0.02,0.09-0.05c1.15-0.63,2.6-0.6,2.6-0.6c0.65,0,1.14,0.12,1.48,0.38c0.32,0.25,0.49,0.63,0.49,1.41v0.25
		C36.47,33.61,35.99,33.56,35.99,33.56"/>
	<path class="st1" d="M84.13,30.49c0.05-0.14-0.05-0.2-0.09-0.22c-0.11-0.05-0.61-0.15-1-0.17c-0.75-0.05-1.17,0.08-1.54,0.25
		s-0.78,0.43-1.01,0.74v-0.72c0-0.11-0.08-0.18-0.17-0.18h-1.54c-0.09,0-0.17,0.08-0.17,0.18v8.9c0,0.09,0.08,0.18,0.18,0.18h1.57
		c0.09,0,0.18-0.08,0.18-0.18v-4.44c0-0.6,0.06-1.2,0.2-1.57c0.12-0.37,0.31-0.66,0.52-0.88c0.22-0.22,0.46-0.35,0.74-0.45
		c0.28-0.09,0.58-0.11,0.8-0.11c0.31,0,0.66,0.08,0.66,0.08c0.11,0.02,0.18-0.06,0.22-0.15C83.79,31.47,84.08,30.64,84.13,30.49"/>
	<path class="st1" d="M69.42,26.35c-0.18-0.06-0.37-0.09-0.58-0.14c-0.23-0.05-0.51-0.06-0.81-0.06c-1.08,0-1.94,0.31-2.52,0.91
		c-0.6,0.6-1,1.51-1.2,2.71l-0.08,0.4h-1.35c0,0-0.17,0-0.2,0.17l-0.22,1.25c-0.02,0.12,0.03,0.2,0.2,0.2h1.32l-1.34,7.47
		c-0.11,0.6-0.23,1.09-0.35,1.48c-0.12,0.37-0.26,0.65-0.42,0.85c-0.15,0.2-0.29,0.34-0.55,0.42c-0.2,0.06-0.45,0.11-0.71,0.11
		c-0.14,0-0.34-0.03-0.48-0.05c-0.14-0.03-0.22-0.06-0.32-0.11c0,0-0.15-0.06-0.22,0.09c-0.05,0.12-0.4,1.09-0.45,1.21
		c-0.05,0.12,0.02,0.22,0.09,0.25c0.17,0.06,0.31,0.11,0.55,0.15c0.34,0.08,0.61,0.08,0.88,0.08c0.55,0,1.05-0.08,1.46-0.23
		c0.42-0.15,0.78-0.42,1.11-0.77c0.35-0.38,0.57-0.78,0.77-1.34c0.2-0.54,0.38-1.21,0.52-2l1.35-7.61h1.97c0,0,0.17,0,0.2-0.17
		l0.23-1.25c0.02-0.12-0.03-0.2-0.2-0.2h-1.91c0.02-0.05,0.09-0.71,0.32-1.35c0.09-0.26,0.28-0.49,0.42-0.63
		c0.15-0.15,0.32-0.25,0.51-0.31s0.4-0.09,0.65-0.09c0.18,0,0.35,0.02,0.49,0.05c0.18,0.05,0.26,0.06,0.31,0.08
		c0.2,0.06,0.22,0,0.26-0.09l0.46-1.26C69.57,26.43,69.45,26.37,69.42,26.35"/>
	<path class="st1" d="M42.75,39.26c0,0.09-0.08,0.18-0.17,0.18H41c-0.09,0-0.17-0.08-0.17-0.18V26.52c0-0.09,0.08-0.18,0.17-0.18
		h1.58c0.09,0,0.17,0.08,0.17,0.18V39.26L42.75,39.26z"/>
</g>
</svg>
