<?xml version="1.0" encoding="utf-8"?>
<!-- Generator: Adobe Illustrator 23.1.1, SVG Export Plug-In . SVG Version: 6.00 Build 0)  -->
<svg version="1.1" id="Слой_1" xmlns="http://www.w3.org/2000/svg" xmlns:xlink="http://www.w3.org/1999/xlink" x="0px" y="0px"
	 width="190px" height="75px" viewBox="0 0 190 75" style="enable-background:new 0 0 190 75;" xml:space="preserve">
<style type="text/css">
	.st0{fill:#62AAFF;}
</style>
<path class="st0" d="M15.85,19.86l-10.63,4.8c1.03,2.29,1.94,4.34,2.97,6.4c2.17-0.91,4.23-1.83,6.51-2.86
	c1.26,5.26,2.51,10.41,3.77,15.67c0.91-0.34,1.71-0.57,2.51-0.8c3.35-1.16,6.95-1.36,10.41-0.57c2.06,0.26,3.74,1.76,4.23,3.77
	c0.24,1.23,0,2.49-0.69,3.54c1.14,3.2-0.23,5.94-3.31,7.67c-2.59,1.34-5.43,2.12-8.35,2.29v-2.63c3.09-0.57,6.29-0.91,8.58-3.31
	c0.27-0.39,0.5-0.82,0.69-1.26c-2.05,0.78-4.15,1.39-6.29,1.83c-1.93,0.27-3.9,0.3-5.83,0.11c-1.19-0.07-2.2-0.9-2.51-2.06
	c-0.23-1.26,0.31-2.54,1.37-3.24c1.62-1.05,3.46-1.71,5.37-1.94c2.24-0.41,4.55-0.28,6.75,0.34c-0.62,1.33-1.96,2.18-3.43,2.17
	c-1.98-0.03-3.96,0.28-5.83,0.91c-0.46,0.23-1.03,0.46-1.6,0.8c1.27,0.35,2.59,0.44,3.89,0.23c2.14-0.18,4.22-0.84,6.06-1.94
	c0.68-0.36,1.26-0.87,1.71-1.49c0.68-0.65,0.7-1.74,0.05-2.41c-0.2-0.21-0.46-0.36-0.74-0.45c-1.52-0.62-3.17-0.86-4.8-0.69
	c-3.29,0.18-6.51,1.11-9.38,2.74c-0.26,0.14-0.53,0.25-0.8,0.34c-1.26-5.37-2.51-10.64-3.89-16.13c-1.94,1.03-3.89,1.94-5.83,2.97
	c-1.6-3.51-3.31-7.21-4.91-10.84c4.78-3.05,9.98-5.41,15.44-6.98c0.46,1.79,1.66,3.29,3.31,4.11c1.11,0.51,2.36,0.63,3.54,0.34
	c2.74-0.69,4.23-2.74,4.46-6.29c6.08-0.46,12.19,0.12,18.07,1.71l-2.41,11.68c-2.4-0.34-4.69-0.57-7.21-0.91
	c-0.23,4.91-0.46,9.73-0.69,14.53c-0.8-0.57-1.6-1.14-2.51-1.83c0.23-5.03,0.46-10.18,0.69-15.44c2.63,0.23,5.14,0.34,7.67,0.57
	c0.46-2.17,0.91-4.46,1.37-6.75c-4.14-0.87-8.35-1.29-12.58-1.26c-1.03,3.54-3.09,5.83-6.75,6.51C21,24.43,18.14,23.06,15.85,19.86
	L15.85,19.86z M185.47,31.64v2.51c-1.14-0.34-0.75-0.46-0.63-0.46c-2.73-2.67-7.12-2.61-9.79,0.12c-0.52,0.53-0.96,1.14-1.28,1.82
	c-1.1,2.23-1.36,4.79-0.73,7.21c0.66,3.78,4.27,6.31,8.05,5.64c1.49-0.26,2.85-1,3.88-2.1c0-0.11-0.65-0.23,0.49-0.34v1.83
	c0.02,2.23-1.71,4.09-3.95,4.23c-2.34,0.43-4.73-0.35-6.37-2.06c-0.69,0.91-1.14,1.83-1.77,2.63l0.44,0.46
	c2.36,1.76,5.33,2.46,8.23,1.94c4.57-0.57,6.87-3.09,6.87-7.67V31.64h-3.43H185.47z M184.22,44.22c-1.4,1.18-3.37,1.45-5.03,0.69
	c-1.63-0.77-2.67-2.42-2.63-4.23c-0.08-0.73-0.04-1.45,0.11-2.17c0.21-1.75,1.5-3.16,3.2-3.54c1.86-0.48,3.83,0.15,5.09,1.6
	c0.28,0.28,0.47,0.63,0.52,1.03v2.48c-0.11,0.69-0.11,1.38,0,2.06C185.49,43.01,185.01,43.82,184.22,44.22L184.22,44.22z
	 M130.12,36.21c-1.24-3.58-5.14-5.49-8.73-4.25c-0.64,0.22-1.25,0.54-1.8,0.94c-0.47,0.21-0.89,0.5-1.26,0.86
	c-0.1-0.7-0.15-1.41-0.11-2.12h-3.66v22.87h3.43v-8h0.11c0.25-0.01,0.47,0.16,0.52,0.41c2.64,2.72,6.98,2.79,9.7,0.16
	c0.75-0.73,1.32-1.61,1.67-2.59C131.12,41.84,131.17,38.87,130.12,36.21L130.12,36.21z M126.8,42.17c-0.3,1.74-1.6,3.13-3.31,3.54
	c-1.78,0.36-3.61-0.25-4.8-1.6c-0.29-0.31-0.46-0.72-0.46-1.14c0-1.71-0.11-3.54,0-5.26c0.02-0.48,0.23-0.92,0.57-1.26
	c1.26-1.42,3.25-1.92,5.03-1.26c1.94,0.57,2.74,2.06,3.09,4c0.1,0.42,0.15,0.83,0.11,1.26C126.99,41.02,126.92,41.59,126.8,42.17z
	 M76.13,39.76c-0.34-3.2-1.6-5.94-4.57-7.32c-3.71-1.72-8.14-0.49-10.41,2.92c-2.29,3.54-1.71,8.77,1.26,11.44
	c3.2,2.86,9.15,2.96,12.35,0.1c0.03-0.15,0.11-0.27,0.23-0.35c-0.57-0.8-1.03-1.49-1.6-2.29c-2.4,1.6-4.8,2.63-7.32,1.26
	c-1.32-0.75-2.24-2.05-2.51-3.54h12.58C76.19,41.23,76.19,40.49,76.13,39.76L76.13,39.76z M63.43,38.5
	c0.18-2.39,2.17-4.24,4.57-4.23c2.4-0.06,4.39,1.83,4.46,4.23l0,0H63.43z M95,39.87c-0.34-3.43-1.71-6.4-5.14-7.67
	c-4.24-1.64-9.01,0.46-10.65,4.71c-0.08,0.2-0.15,0.41-0.21,0.61c-1.49,5.03,1.14,9.93,5.94,11.08c2.23,0.46,4.55,0.22,6.63-0.7
	c0.82-0.42,1.63-0.88,2.4-1.38c-0.69-0.91-1.14-1.71-1.71-2.4c-3.09,2.4-5.83,2.29-7.55,1.26c-1.24-0.74-2.08-2.01-2.29-3.43H95
	C95.06,41.25,95.06,40.57,95,39.87z M82.42,38.5c0.26-2.44,2.35-4.28,4.8-4.23c2.33-0.01,4.23,1.88,4.23,4.21c0,0.01,0,0.01,0,0.02
	H82.42L82.42,38.5z M157.91,34.16c1.12-1.22,2.61-2.06,4.23-2.4c0.99-0.16,1.98-0.2,2.97-0.11c2.36,0.25,4.08,2.33,3.89,4.69
	c0.11,3.89,0,7.78,0,11.67c0,0.12-0.04,0.25-0.11,0.34h-3.54V38.27c0-2.63-1.37-3.89-4.11-3.43c-1.17,0.17-2.24,0.78-2.97,1.71
	c-0.23,0.29-0.35,0.65-0.34,1.03v10.64h-3.54V31.87h3.54V34.16L157.91,34.16z M110.55,34.04c-0.46,0.8-0.91,1.6-1.49,2.51
	c-1.36-1.34-3.23-2.05-5.14-1.94c-0.79,0.06-1.54,0.33-2.17,0.8c-0.6,0.31-0.84,1.06-0.53,1.66c0.16,0.3,0.44,0.53,0.76,0.62
	c0.9,0.32,1.82,0.58,2.74,0.8c1.26,0.34,2.51,0.69,3.77,1.14c2.28,1.09,3.24,3.82,2.16,6.1c-0.37,0.78-0.97,1.44-1.7,1.91
	c-3.09,1.94-8.93,1.37-11.55-1.14c-0.1-0.09-0.18-0.21-0.23-0.34c0.46-0.8,1.03-1.6,1.37-2.29c1.45,0.69,2.94,1.3,4.46,1.83
	c0.9,0.18,1.84,0.18,2.74,0c0.98,0.03,1.8-0.74,1.83-1.71c0.03-0.98-0.74-1.8-1.71-1.83c-1.14-0.34-2.4-0.57-3.66-0.91l-2.06-0.69
	c-3.54-1.49-3.2-5.83-0.8-7.67C102.32,30.84,107.92,31.3,110.55,34.04L110.55,34.04z M50.51,35.18h-2.63v-3.2h2.63v-4.5h3.66v4.34
	h3.31v3.2h-3.2c0,0.34-0.11,0.57-0.11,0.8v8.13c-0.02,0.9,0.69,1.65,1.59,1.67c0.28,0.01,0.56-0.06,0.81-0.19
	c0.26-0.14,0.53-0.25,0.8-0.34c0.23,0.91,0.57,1.71,0.8,2.63c-1.52,1.11-3.48,1.4-5.26,0.8c-1.46-0.43-2.45-1.79-2.4-3.31
	c-0.11-2.86,0-5.83-0.11-8.7c0.1-0.45,0.15-0.91,0.11-1.37L50.51,35.18z M134.34,32.06h3.54v2.29c1.34-1.56,3.22-2.54,5.26-2.74
	v3.54c-2.02-0.28-4.03,0.55-5.26,2.17v11.1h-3.54V32.06z M146.13,32.1h3.54v16.35h-3.54V32.1z M150.13,27.74
	c0,1.27-1.03,2.29-2.29,2.29c-1.17-0.06-2.12-1-2.17-2.17c0-1.27,1.03-2.29,2.29-2.29C149.13,25.64,150.08,26.57,150.13,27.74z"/>
</svg>
