<?xml version="1.0" encoding="utf-8"?>
<!-- Generator: Adobe Illustrator 23.1.1, SVG Export Plug-In . SVG Version: 6.00 Build 0)  -->
<svg version="1.1" id="Слой_1" xmlns="http://www.w3.org/2000/svg" xmlns:xlink="http://www.w3.org/1999/xlink" x="0px" y="0px"
	 width="464px" height="376px" viewBox="0 0 464 376" style="enable-background:new 0 0 464 376;" xml:space="preserve">
<style type="text/css">
	.st0{fill:#267AE9;}
	.st1{fill:#42D6C1;}
	.st2{fill:#545F6B;}
</style>
<path class="st0" d="M65.74,74.61H44.45H19.62c-3.83,0-7.09-3.26-7.09-7.09V24.94c0-3.9,3.26-7.09,7.09-7.09h70.94
	c3.9,0,7.09,3.19,7.09,7.09v42.57c0,3.83-3.19,7.09-7.09,7.09H65.74z"/>
<path class="st0" d="M65.74,74.61l7.09,21.21H37.36l7.09-21.21H65.74z"/>
<path class="st0" d="M65.74,336.96l7.09,21.28H37.36l7.09-21.28H65.74z"/>
<path class="st0" d="M97.66,287.37v42.5c0,3.9-3.19,7.09-7.09,7.09H65.74H44.45H19.62c-3.83,0-7.09-3.19-7.09-7.09v-42.5
	c0-3.9,3.26-7.09,7.09-7.09h70.94C94.47,280.27,97.66,283.47,97.66,287.37L97.66,287.37z"/>
<path class="st0" d="M420.46,336.96l7.09,21.28h-35.47l7.09-21.28H420.46z"/>
<path class="st0" d="M452.38,287.37v42.5c0,3.9-3.19,7.09-7.09,7.09h-24.83h-21.28h-24.76c-3.9,0-7.09-3.19-7.09-7.09v-42.5
	c0-3.9,3.19-7.09,7.09-7.09h70.87C449.19,280.27,452.38,283.47,452.38,287.37L452.38,287.37z"/>
<path class="st0" d="M420.46,74.46l7.09,21.28h-35.47l7.09-21.28L420.46,74.46z"/>
<path class="st0" d="M452.38,24.87v42.5c0,3.9-3.19,7.09-7.09,7.09h-24.83h-21.28h-24.76c-3.9,0-7.09-3.19-7.09-7.09v-42.5
	c0-3.9,3.19-7.09,7.09-7.09h70.87C449.19,17.78,452.38,20.97,452.38,24.87z"/>
<path class="st1" d="M289.21,244.8c23.55,0,42.57-19.08,42.57-42.57v28.38c0,23.48-19.01,42.57-42.57,42.57H168.6
	c-19.58,0-35.4-15.89-35.4-35.4v-28.45c0,19.58,15.82,35.4,35.4,35.4h120.61V244.8z"/>
<path class="st1" d="M292.69,159.8c21.92,1.77,39.09,20.08,39.09,42.42c0,23.48-19.01,42.57-42.57,42.57v-0.07H168.6
	c-19.58,0-35.4-15.82-35.4-35.4s15.82-35.4,35.4-35.4h0.43h0.08c3.47-31.92,30.51-56.76,63.42-56.76c27.81,0,51.43,17.81,60.1,42.64
	L292.69,159.8z"/>
<path class="st2" d="M289.22,251.87H168.62c-3.92,0-7.09-3.17-7.09-7.09c0-3.92,3.17-7.09,7.09-7.09h120.61
	c3.92,0,7.09,3.17,7.09,7.09C296.32,248.7,293.15,251.87,289.22,251.87z"/>
<path class="st2" d="M296.3,188.08c-3.92,0-7.09-3.17-7.09-7.09c0-31.28-25.45-56.73-56.73-56.73s-56.73,25.45-56.73,56.73
	c0,3.92-3.17,7.09-7.09,7.09c-3.92,0-7.09-3.17-7.09-7.09c0-39.1,31.81-70.92,70.92-70.92s70.92,31.81,70.92,70.92
	C303.4,184.91,300.23,188.08,296.3,188.08z"/>
<path class="st2" d="M289.22,251.87c-3.92,0-7.09-3.17-7.09-7.09s3.17-7.09,7.09-7.09c19.56,0,35.47-15.9,35.47-35.44
	c0-18.37-14.33-33.9-32.63-35.34c-3.9-0.31-6.82-3.72-6.51-7.63c0.32-3.9,3.65-6.81,7.63-6.51c25.62,2.02,45.69,23.77,45.69,49.49
	C338.88,229.6,316.6,251.87,289.22,251.87L289.22,251.87z"/>
<path class="st2" d="M168.62,251.87c-23.46,0-42.54-19.07-42.54-42.52c0-23.45,19.08-42.52,42.54-42.52c3.92,0,7.09,3.17,7.09,7.09
	s-3.17,7.09-7.09,7.09c-15.63,0-28.35,12.71-28.35,28.34s12.72,28.33,28.35,28.33c3.92,0,7.09,3.17,7.09,7.09
	C175.71,248.7,172.54,251.87,168.62,251.87z"/>
<path class="st2" d="M289.22,280.28H168.62c-3.92,0-7.09-3.17-7.09-7.09s3.17-7.09,7.09-7.09h120.61c3.92,0,7.09,3.17,7.09,7.09
	S293.15,280.28,289.22,280.28z"/>
<path class="st2" d="M289.22,280.29c-3.92,0-7.09-3.17-7.09-7.09s3.17-7.09,7.09-7.09c19.56,0,35.47-15.9,35.47-35.44
	c0-3.92,3.17-7.09,7.09-7.09s7.09,3.17,7.09,7.09C338.88,258.02,316.6,280.29,289.22,280.29z"/>
<path class="st2" d="M168.62,280.28c-23.46,0-42.54-19.07-42.54-42.52c0-3.92,3.17-7.09,7.09-7.09c3.92,0,7.09,3.17,7.09,7.09
	c0,15.62,12.72,28.33,28.35,28.33c3.92,0,7.09,3.17,7.09,7.09S172.54,280.28,168.62,280.28z"/>
<path class="st2" d="M169.05,181.01h-0.43c-3.92,0-7.09-3.17-7.09-7.09s3.17-7.09,7.09-7.09c3.92,0,7.31,3.17,7.31,7.09
	S172.97,181.01,169.05,181.01z"/>
<path class="st2" d="M133.18,244.86c-3.92,0-7.09-3.17-7.09-7.09v-28.41c0-3.92,3.17-7.09,7.09-7.09c3.92,0,7.09,3.17,7.09,7.09
	v28.41C140.27,241.68,137.1,244.86,133.18,244.86z"/>
<path class="st2" d="M331.79,237.75c-3.92,0-7.09-3.17-7.09-7.09v-28.41c0-3.92,3.17-7.09,7.09-7.09s7.09,3.17,7.09,7.09v28.41
	C338.88,234.57,335.71,237.75,331.79,237.75z"/>
<path d="M104.73,223.56H55.09c-3.92,0-7.09-3.17-7.09-7.09c0-3.92,3.17-7.09,7.09-7.09h49.65c3.92,0,7.09,3.17,7.09,7.09
	C111.83,220.39,108.66,223.56,104.73,223.56z"/>
<path d="M55.09,259.01c-3.92,0-7.09-3.17-7.09-7.09v-35.39c0-3.92,3.17-7.09,7.09-7.09s7.09,3.17,7.09,7.09v35.39
	C62.18,255.84,59.01,259.01,55.09,259.01z"/>
<path d="M90.55,237.81c-1.82,0-3.63-0.7-5.02-2.08c-2.77-2.77-2.77-7.26,0-10.03l14.19-14.19c2.77-2.77,7.26-2.77,10.03,0
	c2.77,2.77,2.77,7.26,0,10.03l-14.19,14.19C94.18,237.12,92.37,237.81,90.55,237.81z"/>
<path d="M104.74,223.62c-1.82,0-3.63-0.7-5.02-2.08l-14.19-14.19c-2.77-2.77-2.77-7.26,0-10.03c2.77-2.77,7.26-2.77,10.03,0
	l14.19,14.19c2.77,2.77,2.77,7.26,0,10.03C108.37,222.93,106.56,223.62,104.74,223.62z"/>
<path class="st2" d="M104.73,223.56H55.09c-3.92,0-7.09-3.17-7.09-7.09c0-3.92,3.17-7.09,7.09-7.09h49.65
	c3.92,0,7.09,3.17,7.09,7.09C111.83,220.39,108.66,223.56,104.73,223.56z"/>
<path class="st2" d="M55.09,259.01c-3.92,0-7.09-3.17-7.09-7.09v-35.39c0-3.92,3.17-7.09,7.09-7.09s7.09,3.17,7.09,7.09v35.39
	C62.18,255.84,59.01,259.01,55.09,259.01z"/>
<path class="st2" d="M90.55,237.81c-1.82,0-3.63-0.7-5.02-2.08c-2.77-2.77-2.77-7.26,0-10.03l14.19-14.19
	c2.77-2.77,7.26-2.77,10.03,0c2.77,2.77,2.77,7.26,0,10.03l-14.19,14.19C94.18,237.12,92.37,237.81,90.55,237.81z"/>
<path class="st2" d="M104.74,223.62c-1.82,0-3.63-0.7-5.02-2.08l-14.19-14.19c-2.77-2.77-2.77-7.26,0-10.03
	c2.77-2.77,7.26-2.77,10.03,0l14.19,14.19c2.77,2.77,2.77,7.26,0,10.03C108.37,222.93,106.56,223.62,104.74,223.62z"/>
<path class="st2" d="M104.73,166.76H55.09c-3.92,0-7.09-3.17-7.09-7.09s3.17-7.09,7.09-7.09h49.65c3.92,0,7.09,3.17,7.09,7.09
	S108.66,166.76,104.73,166.76z"/>
<path class="st2" d="M55.09,166.7c-3.92,0-7.09-3.17-7.09-7.09v-35.39c0-3.92,3.17-7.09,7.09-7.09s7.09,3.17,7.09,7.09v35.39
	C62.18,163.53,59.01,166.7,55.09,166.7L55.09,166.7z"/>
<path class="st2" d="M104.74,166.7c-1.82,0-3.63-0.7-5.02-2.08l-14.19-14.19c-2.77-2.77-2.77-7.26,0-10.03
	c2.77-2.77,7.26-2.77,10.03,0l14.19,14.19c2.77,2.77,2.77,7.26,0,10.03C108.37,166,106.56,166.7,104.74,166.7z"/>
<path class="st2" d="M90.55,180.89c-1.82,0-3.63-0.7-5.02-2.08c-2.77-2.77-2.77-7.26,0-10.03l14.19-14.19
	c2.77-2.77,7.26-2.77,10.03,0c2.77,2.77,2.77,7.26,0,10.03l-14.19,14.19C94.18,180.19,92.37,180.89,90.55,180.89z"/>
<path d="M409.9,223.55h-49.65c-3.92,0-7.09-3.17-7.09-7.09s3.17-7.09,7.09-7.09h49.65c3.92,0,7.09,3.17,7.09,7.09
	S413.82,223.55,409.9,223.55z"/>
<path d="M409.9,259c-3.92,0-7.09-3.17-7.09-7.09v-35.39c0-3.92,3.17-7.09,7.09-7.09s7.09,3.17,7.09,7.09v35.39
	C416.99,255.83,413.82,259,409.9,259z"/>
<path d="M374.44,237.81c-1.82,0-3.63-0.7-5.02-2.08l-14.19-14.19c-2.77-2.77-2.77-7.26,0-10.03c2.77-2.77,7.26-2.77,10.03,0
	l14.19,14.19c2.77,2.77,2.77,7.26,0,10.03C378.06,237.11,376.25,237.81,374.44,237.81z"/>
<path d="M360.25,223.62c-1.82,0-3.63-0.7-5.02-2.08c-2.77-2.77-2.77-7.26,0-10.03l14.19-14.19c2.77-2.77,7.26-2.77,10.03,0
	c2.77,2.77,2.77,7.26,0,10.03l-14.19,14.19C363.87,222.92,362.06,223.62,360.25,223.62z"/>
<path class="st2" d="M409.9,223.55h-49.65c-3.92,0-7.09-3.17-7.09-7.09s3.17-7.09,7.09-7.09h49.65c3.92,0,7.09,3.17,7.09,7.09
	S413.82,223.55,409.9,223.55z"/>
<path class="st2" d="M409.9,259c-3.92,0-7.09-3.17-7.09-7.09v-35.39c0-3.92,3.17-7.09,7.09-7.09s7.09,3.17,7.09,7.09v35.39
	C416.99,255.83,413.82,259,409.9,259z"/>
<path class="st2" d="M374.44,237.81c-1.82,0-3.63-0.7-5.02-2.08l-14.19-14.19c-2.77-2.77-2.77-7.26,0-10.03
	c2.77-2.77,7.26-2.77,10.03,0l14.19,14.19c2.77,2.77,2.77,7.26,0,10.03C378.06,237.11,376.25,237.81,374.44,237.81z"/>
<path class="st2" d="M360.25,223.62c-1.82,0-3.63-0.7-5.02-2.08c-2.77-2.77-2.77-7.26,0-10.03l14.19-14.19
	c2.77-2.77,7.26-2.77,10.03,0c2.77,2.77,2.77,7.26,0,10.03l-14.19,14.19C363.87,222.92,362.06,223.62,360.25,223.62z"/>
<path class="st2" d="M409.9,166.76h-49.65c-3.92,0-7.09-3.17-7.09-7.09c0-3.92,3.17-7.09,7.09-7.09h49.65
	c3.92,0,7.09,3.17,7.09,7.09C416.99,163.58,413.82,166.76,409.9,166.76z"/>
<path class="st2" d="M409.9,166.69c-3.92,0-7.09-3.17-7.09-7.09v-35.39c0-3.92,3.17-7.09,7.09-7.09s7.09,3.17,7.09,7.09v35.39
	C416.99,163.52,413.82,166.69,409.9,166.69L409.9,166.69z"/>
<path class="st2" d="M360.25,166.69c-1.82,0-3.63-0.7-5.02-2.08c-2.77-2.77-2.77-7.26,0-10.03l14.19-14.19
	c2.77-2.77,7.26-2.77,10.03,0c2.77,2.77,2.77,7.26,0,10.03l-14.19,14.19C363.87,166,362.06,166.69,360.25,166.69z"/>
<path class="st2" d="M374.44,180.88c-1.82,0-3.63-0.7-5.02-2.08l-14.19-14.19c-2.77-2.77-2.77-7.26,0-10.03
	c2.77-2.77,7.26-2.77,10.03,0l14.19,14.19c2.77,2.77,2.77,7.26,0,10.03C378.06,180.18,376.25,180.88,374.44,180.88z"/>
<path class="st2" d="M445.27,81.6h-70.89c-7.83,0-14.19-6.36-14.19-14.19V24.89c0-7.83,6.36-14.19,14.19-14.19h70.89
	c7.83,0,14.19,6.36,14.19,14.19v42.52C459.45,75.24,453.09,81.6,445.27,81.6z M445.27,67.41v7.09V67.41z M374.38,24.89v42.52h70.86
	l0.03-42.52H374.38z"/>
<path class="st2" d="M392.09,102.83c-0.74,0-1.5-0.12-2.24-0.37c-3.71-1.23-5.73-5.25-4.48-8.97l7.09-21.28
	c1.24-3.71,5.21-5.74,8.97-4.48c3.71,1.23,5.73,5.25,4.48,8.97l-7.09,21.28C397.83,100.95,395.07,102.83,392.09,102.83
	L392.09,102.83z"/>
<path class="st2" d="M427.56,102.83c-2.97,0-5.74-1.88-6.73-4.85l-7.09-21.28c-1.24-3.72,0.77-7.74,4.48-8.97
	c3.75-1.26,7.73,0.77,8.97,4.48l7.09,21.28c1.24,3.72-0.77,7.74-4.48,8.97C429.05,102.72,428.3,102.83,427.56,102.83L427.56,102.83z
	"/>
<path class="st2" d="M431.1,102.83h-42.55c-3.92,0-7.09-3.17-7.09-7.09c0-3.92,3.17-7.09,7.09-7.09h42.55
	c3.92,0,7.09,3.17,7.09,7.09C438.19,99.66,435.02,102.83,431.1,102.83z"/>
<path class="st2" d="M445.27,344.09h-70.89c-7.83,0-14.19-6.36-14.19-14.19v-42.52c0-7.83,6.36-14.19,14.19-14.19h70.89
	c7.83,0,14.19,6.36,14.19,14.19v42.52C459.45,337.72,453.09,344.09,445.27,344.09z M445.27,329.9v7.09V329.9z M374.38,287.37v42.52
	h70.86l0.03-42.52H374.38z"/>
<path class="st2" d="M392.09,365.32c-0.74,0-1.5-0.12-2.24-0.37c-3.71-1.23-5.73-5.25-4.48-8.97l7.09-21.28
	c1.24-3.71,5.21-5.73,8.97-4.48c3.71,1.23,5.73,5.25,4.48,8.97l-7.09,21.28C397.83,363.45,395.07,365.32,392.09,365.32
	L392.09,365.32z"/>
<path class="st2" d="M427.56,365.32c-2.97,0-5.74-1.88-6.73-4.85l-7.09-21.28c-1.24-3.72,0.77-7.74,4.48-8.97
	c3.75-1.24,7.73,0.77,8.97,4.48l7.09,21.28c1.24,3.72-0.77,7.74-4.48,8.97C429.05,365.21,428.3,365.32,427.56,365.32L427.56,365.32z
	"/>
<path class="st2" d="M431.1,365.32h-42.55c-3.92,0-7.09-3.17-7.09-7.09s3.17-7.09,7.09-7.09h42.55c3.92,0,7.09,3.17,7.09,7.09
	S435.02,365.32,431.1,365.32z"/>
<path class="st2" d="M90.53,344.09H19.64c-7.83,0-14.19-6.36-14.19-14.19v-42.52c0-7.83,6.36-14.19,14.19-14.19h70.89
	c7.83,0,14.19,6.36,14.19,14.19v42.52C104.72,337.72,98.36,344.09,90.53,344.09z M90.53,329.9v7.09V329.9z M19.64,287.37v42.52H90.5
	l0.03-42.52H19.64z"/>
<path class="st2" d="M37.36,365.32c-0.74,0-1.5-0.12-2.24-0.37c-3.71-1.23-5.73-5.25-4.48-8.97l7.09-21.28
	c1.24-3.71,5.22-5.73,8.97-4.48c3.71,1.23,5.73,5.25,4.48,8.97l-7.09,21.28C43.1,363.45,40.33,365.32,37.36,365.32L37.36,365.32z"/>
<path class="st2" d="M72.82,365.32c-2.97,0-5.74-1.88-6.73-4.85L59,339.19c-1.24-3.72,0.77-7.74,4.48-8.97
	c3.75-1.24,7.73,0.77,8.97,4.48l7.09,21.28c1.24,3.72-0.77,7.74-4.48,8.97C74.32,365.21,73.57,365.32,72.82,365.32L72.82,365.32z"/>
<path class="st2" d="M76.36,365.32H33.81c-3.92,0-7.09-3.17-7.09-7.09s3.17-7.09,7.09-7.09h42.55c3.92,0,7.09,3.17,7.09,7.09
	S80.29,365.32,76.36,365.32z"/>
<path class="st2" d="M90.53,81.69H19.64c-7.83,0-14.19-6.36-14.19-14.19V24.97c0-7.83,6.36-14.19,14.19-14.19h70.89
	c7.83,0,14.19,6.36,14.19,14.19V67.5C104.72,75.32,98.36,81.69,90.53,81.69z M90.53,67.5v7.09V67.5z M19.64,24.97V67.5H90.5
	l0.03-42.52H19.64z"/>
<path class="st2" d="M37.36,102.92c-0.74,0-1.5-0.12-2.24-0.37c-3.71-1.23-5.73-5.25-4.48-8.97l7.09-21.28
	c1.24-3.71,5.22-5.73,8.97-4.48c3.71,1.23,5.73,5.25,4.48,8.97l-7.09,21.28C43.1,101.04,40.33,102.92,37.36,102.92z"/>
<path class="st2" d="M72.82,102.92c-2.97,0-5.74-1.88-6.73-4.85L59,76.79c-1.24-3.72,0.77-7.74,4.48-8.97
	c3.75-1.25,7.73,0.77,8.97,4.48l7.09,21.28c1.24,3.72-0.77,7.74-4.48,8.97C74.32,102.8,73.57,102.92,72.82,102.92L72.82,102.92z"/>
<path class="st2" d="M76.36,102.92H33.81c-3.92,0-7.09-3.17-7.09-7.09s3.17-7.09,7.09-7.09h42.55c3.92,0,7.09,3.17,7.09,7.09
	S80.29,102.92,76.36,102.92z"/>
</svg>
